<?xml version="1.0" encoding="UTF-8" standalone="no"?><svg xmlns="http://www.w3.org/2000/svg" xmlns:xlink="http://www.w3.org/1999/xlink" contentScriptType="application/ecmascript" contentStyleType="text/css" height="436px" preserveAspectRatio="none" style="width:645px;height:436px;" version="1.1" viewBox="0 0 645 436" width="645px" zoomAndPan="magnify"><defs><filter height="300%" id="fciaqwa" width="300%" x="-1" y="-1"><feGaussianBlur result="blurOut" stdDeviation="2.0"/><feColorMatrix in="blurOut" result="blurOut2" type="matrix" values="0 0 0 0 0 0 0 0 0 0 0 0 0 0 0 0 0 0 .4 0"/><feOffset dx="4.0" dy="4.0" in="blurOut2" result="blurOut3"/><feBlend in="SourceGraphic" in2="blurOut3" mode="normal"/></filter></defs><g><!--class Contextual--><rect fill="#FEFECE" filter="url(#fciaqwa)" height="73.9102" style="stroke: #A80036; stroke-width: 1.5;" width="211" x="78" y="34"/><ellipse cx="142.75" cy="50" fill="#B4A7E5" rx="11" ry="11" style="stroke: #A80036; stroke-width: 1.0;"/><path d="M138.6777,45.7651 L138.6777,43.6069 L146.0571,43.6069 L146.0571,45.7651 L143.5918,45.7651 L143.5918,53.8418 L146.0571,53.8418 L146.0571,56 L138.6777,56 L138.6777,53.8418 L141.1431,53.8418 L141.1431,45.7651 Z "/><text fill="#000000" font-family="sans-serif" font-size="12" font-style="italic" lengthAdjust="spacingAndGlyphs" textLength="61" x="163.25" y="54.5352">Contextual</text><rect fill="#FFFFFF" height="16.1328" style="stroke: #000000; stroke-width: 1.0; stroke-dasharray: 2.0,2.0;" width="10" x="282" y="31"/><text fill="#000000" font-family="sans-serif" font-size="12" font-style="italic" lengthAdjust="spacingAndGlyphs" textLength="8" x="283" y="43.6016">T</text><line style="stroke: #A80036; stroke-width: 1.5;" x1="79" x2="288" y1="66" y2="66"/><line style="stroke: #A80036; stroke-width: 1.5;" x1="79" x2="288" y1="74" y2="74"/><ellipse cx="89" cy="85.9775" fill="#84BE84" rx="3" ry="3" style="stroke: #038048; stroke-width: 1.0;"/><text fill="#000000" font-family="sans-serif" font-size="11" lengthAdjust="spacingAndGlyphs" textLength="174" x="98" y="88.6348">T create(CreationalContext&lt;T&gt;)</text><ellipse cx="89" cy="98.9326" fill="#84BE84" rx="3" ry="3" style="stroke: #038048; stroke-width: 1.0;"/><text fill="#000000" font-family="sans-serif" font-size="11" lengthAdjust="spacingAndGlyphs" textLength="185" x="98" y="101.5898">destroy(T, CreationalContext&lt;T&gt;)</text><!--class Bean--><rect fill="#FEFECE" filter="url(#fciaqwa)" height="86.8652" style="stroke: #A80036; stroke-width: 1.5;" width="240" x="211.5" y="194"/><ellipse cx="307.25" cy="210" fill="#B4A7E5" rx="11" ry="11" style="stroke: #A80036; stroke-width: 1.0;"/><path d="M303.1777,205.7651 L303.1777,203.6069 L310.5571,203.6069 L310.5571,205.7651 L308.0918,205.7651 L308.0918,213.8418 L310.5571,213.8418 L310.5571,216 L303.1777,216 L303.1777,213.8418 L305.6431,213.8418 L305.6431,205.7651 Z "/><text fill="#000000" font-family="sans-serif" font-size="12" font-style="italic" lengthAdjust="spacingAndGlyphs" textLength="28" x="327.75" y="214.5352">Bean</text><rect fill="#FFFFFF" height="16.1328" style="stroke: #000000; stroke-width: 1.0; stroke-dasharray: 2.0,2.0;" width="10" x="444.5" y="191"/><text fill="#000000" font-family="sans-serif" font-size="12" font-style="italic" lengthAdjust="spacingAndGlyphs" textLength="8" x="445.5" y="203.6016">T</text><line style="stroke: #A80036; stroke-width: 1.5;" x1="212.5" x2="450.5" y1="226" y2="226"/><line style="stroke: #A80036; stroke-width: 1.5;" x1="212.5" x2="450.5" y1="234" y2="234"/><ellipse cx="222.5" cy="245.9775" fill="#84BE84" rx="3" ry="3" style="stroke: #038048; stroke-width: 1.0;"/><text fill="#000000" font-family="sans-serif" font-size="11" lengthAdjust="spacingAndGlyphs" textLength="134" x="231.5" y="248.6348">Class&lt;?&gt; getBeanClass()</text><ellipse cx="222.5" cy="258.9326" fill="#84BE84" rx="3" ry="3" style="stroke: #038048; stroke-width: 1.0;"/><text fill="#000000" font-family="sans-serif" font-size="11" lengthAdjust="spacingAndGlyphs" textLength="214" x="231.5" y="261.5898">Set&lt;InjectionPoint&gt; getInjectionPoints()</text><ellipse cx="222.5" cy="271.8877" fill="#84BE84" rx="3" ry="3" style="stroke: #038048; stroke-width: 1.0;"/><text fill="#000000" font-family="sans-serif" font-size="11" lengthAdjust="spacingAndGlyphs" textLength="106" x="231.5" y="274.5449">boolean isNullable()</text><!--class BeanAttributes--><rect fill="#FEFECE" filter="url(#fciaqwa)" height="125.7305" style="stroke: #A80036; stroke-width: 1.5;" width="312" x="324.5" y="8"/><ellipse cx="428.25" cy="24" fill="#B4A7E5" rx="11" ry="11" style="stroke: #A80036; stroke-width: 1.0;"/><path d="M424.1777,19.7651 L424.1777,17.6069 L431.5571,17.6069 L431.5571,19.7651 L429.0918,19.7651 L429.0918,27.8418 L431.5571,27.8418 L431.5571,30 L424.1777,30 L424.1777,27.8418 L426.6431,27.8418 L426.6431,19.7651 Z "/><text fill="#000000" font-family="sans-serif" font-size="12" font-style="italic" lengthAdjust="spacingAndGlyphs" textLength="84" x="448.75" y="28.5352">BeanAttributes</text><rect fill="#FFFFFF" height="16.1328" style="stroke: #000000; stroke-width: 1.0; stroke-dasharray: 2.0,2.0;" width="10" x="629.5" y="5"/><text fill="#000000" font-family="sans-serif" font-size="12" font-style="italic" lengthAdjust="spacingAndGlyphs" textLength="8" x="630.5" y="17.6016">T</text><line style="stroke: #A80036; stroke-width: 1.5;" x1="325.5" x2="635.5" y1="40" y2="40"/><line style="stroke: #A80036; stroke-width: 1.5;" x1="325.5" x2="635.5" y1="48" y2="48"/><ellipse cx="335.5" cy="59.9775" fill="#84BE84" rx="3" ry="3" style="stroke: #038048; stroke-width: 1.0;"/><text fill="#000000" font-family="sans-serif" font-size="11" lengthAdjust="spacingAndGlyphs" textLength="120" x="344.5" y="62.6348">Set&lt;Type&gt; getTypes()</text><ellipse cx="335.5" cy="72.9326" fill="#84BE84" rx="3" ry="3" style="stroke: #038048; stroke-width: 1.0;"/><text fill="#000000" font-family="sans-serif" font-size="11" lengthAdjust="spacingAndGlyphs" textLength="174" x="344.5" y="75.5898">Set&lt;Annotation&gt; getQualifiers()</text><ellipse cx="335.5" cy="85.8877" fill="#84BE84" rx="3" ry="3" style="stroke: #038048; stroke-width: 1.0;"/><text fill="#000000" font-family="sans-serif" font-size="11" lengthAdjust="spacingAndGlyphs" textLength="221" x="344.5" y="88.5449">Class&lt;? extends Annotation&gt; getScope()</text><ellipse cx="335.5" cy="98.8428" fill="#84BE84" rx="3" ry="3" style="stroke: #038048; stroke-width: 1.0;"/><text fill="#000000" font-family="sans-serif" font-size="11" lengthAdjust="spacingAndGlyphs" textLength="90" x="344.5" y="101.5">String getName()</text><ellipse cx="335.5" cy="111.7979" fill="#84BE84" rx="3" ry="3" style="stroke: #038048; stroke-width: 1.0;"/><text fill="#000000" font-family="sans-serif" font-size="11" lengthAdjust="spacingAndGlyphs" textLength="286" x="344.5" y="114.4551">Set&lt;Class&lt;? extends Annotation&gt;&gt; getStereotypes()</text><ellipse cx="335.5" cy="124.7529" fill="#84BE84" rx="3" ry="3" style="stroke: #038048; stroke-width: 1.0;"/><text fill="#000000" font-family="sans-serif" font-size="11" lengthAdjust="spacingAndGlyphs" textLength="121" x="344.5" y="127.4102">boolean isAlternative()</text><!--class Interceptor--><rect fill="#FEFECE" filter="url(#fciaqwa)" height="86.8652" style="stroke: #A80036; stroke-width: 1.5;" width="329" x="6" y="341"/><ellipse cx="128.75" cy="357" fill="#B4A7E5" rx="11" ry="11" style="stroke: #A80036; stroke-width: 1.0;"/><path d="M124.6777,352.7651 L124.6777,350.6069 L132.0571,350.6069 L132.0571,352.7651 L129.5918,352.7651 L129.5918,360.8418 L132.0571,360.8418 L132.0571,363 L124.6777,363 L124.6777,360.8418 L127.1431,360.8418 L127.1431,352.7651 Z "/><text fill="#000000" font-family="sans-serif" font-size="12" font-style="italic" lengthAdjust="spacingAndGlyphs" textLength="63" x="149.25" y="361.5352">Interceptor</text><rect fill="#FFFFFF" height="16.1328" style="stroke: #000000; stroke-width: 1.0; stroke-dasharray: 2.0,2.0;" width="10" x="328" y="338"/><text fill="#000000" font-family="sans-serif" font-size="12" font-style="italic" lengthAdjust="spacingAndGlyphs" textLength="8" x="329" y="350.6016">T</text><line style="stroke: #A80036; stroke-width: 1.5;" x1="7" x2="334" y1="373" y2="373"/><line style="stroke: #A80036; stroke-width: 1.5;" x1="7" x2="334" y1="381" y2="381"/><ellipse cx="17" cy="392.9775" fill="#84BE84" rx="3" ry="3" style="stroke: #038048; stroke-width: 1.0;"/><text fill="#000000" font-family="sans-serif" font-size="11" lengthAdjust="spacingAndGlyphs" textLength="228" x="26" y="395.6348">Set&lt;Annotation&gt; getInterceptorBindings()</text><ellipse cx="17" cy="405.9326" fill="#84BE84" rx="3" ry="3" style="stroke: #038048; stroke-width: 1.0;"/><text fill="#000000" font-family="sans-serif" font-size="11" lengthAdjust="spacingAndGlyphs" textLength="225" x="26" y="408.5898">boolean intercepts(InterceptionType type)</text><ellipse cx="17" cy="418.8877" fill="#84BE84" rx="3" ry="3" style="stroke: #038048; stroke-width: 1.0;"/><text fill="#000000" font-family="sans-serif" font-size="11" lengthAdjust="spacingAndGlyphs" textLength="303" x="26" y="421.5449">Object intercept(InterceptionType, T, InvocationContext)</text><!--class Decorator--><rect fill="#FEFECE" filter="url(#fciaqwa)" height="86.8652" style="stroke: #A80036; stroke-width: 1.5;" width="246" x="370.5" y="341"/><ellipse cx="454.75" cy="357" fill="#B4A7E5" rx="11" ry="11" style="stroke: #A80036; stroke-width: 1.0;"/><path d="M450.6777,352.7651 L450.6777,350.6069 L458.0571,350.6069 L458.0571,352.7651 L455.5918,352.7651 L455.5918,360.8418 L458.0571,360.8418 L458.0571,363 L450.6777,363 L450.6777,360.8418 L453.1431,360.8418 L453.1431,352.7651 Z "/><text fill="#000000" font-family="sans-serif" font-size="12" font-style="italic" lengthAdjust="spacingAndGlyphs" textLength="57" x="475.25" y="361.5352">Decorator</text><rect fill="#FFFFFF" height="16.1328" style="stroke: #000000; stroke-width: 1.0; stroke-dasharray: 2.0,2.0;" width="10" x="609.5" y="338"/><text fill="#000000" font-family="sans-serif" font-size="12" font-style="italic" lengthAdjust="spacingAndGlyphs" textLength="8" x="610.5" y="350.6016">T</text><line style="stroke: #A80036; stroke-width: 1.5;" x1="371.5" x2="615.5" y1="373" y2="373"/><line style="stroke: #A80036; stroke-width: 1.5;" x1="371.5" x2="615.5" y1="381" y2="381"/><ellipse cx="381.5" cy="392.9775" fill="#84BE84" rx="3" ry="3" style="stroke: #038048; stroke-width: 1.0;"/><text fill="#000000" font-family="sans-serif" font-size="11" lengthAdjust="spacingAndGlyphs" textLength="126" x="390.5" y="395.6348">Type getDelegateType()</text><ellipse cx="381.5" cy="405.9326" fill="#84BE84" rx="3" ry="3" style="stroke: #038048; stroke-width: 1.0;"/><text fill="#000000" font-family="sans-serif" font-size="11" lengthAdjust="spacingAndGlyphs" textLength="220" x="390.5" y="408.5898">Set&lt;Annotation&gt; getDelegateQualifiers()</text><ellipse cx="381.5" cy="418.8877" fill="#84BE84" rx="3" ry="3" style="stroke: #038048; stroke-width: 1.0;"/><text fill="#000000" font-family="sans-serif" font-size="11" lengthAdjust="spacingAndGlyphs" textLength="175" x="390.5" y="421.5449">Set&lt;Type&gt; getDecoratedTypes()</text><path d="M230.0524,123.3715 C250.1758,146.0103 273.4543,172.1986 292.6329,193.7745 " fill="none" style="stroke: #A80036; stroke-width: 1.0;"/><polygon fill="none" points="224.7695,127.9646,216.7141,108.3658,235.2333,118.6635,224.7695,127.9646" style="stroke: #A80036; stroke-width: 1.0;"/><path d="M410.2217,149.5325 C396.5675,164.7904 382.7235,180.2603 370.5324,193.8833 " fill="none" style="stroke: #A80036; stroke-width: 1.0;"/><polygon fill="none" points="405.1909,144.6571,423.7444,134.4215,415.6235,153.9932,405.1909,144.6571" style="stroke: #A80036; stroke-width: 1.0;"/><path d="M268.6166,294.9153 C251.8423,310.2309 233.9949,326.5264 218.185,340.9616 " fill="none" style="stroke: #A80036; stroke-width: 1.0;"/><polygon fill="none" points="264.141,289.5229,283.6306,281.2068,273.5808,299.8617,264.141,289.5229" style="stroke: #A80036; stroke-width: 1.0;"/><path d="M394.5157,294.6809 C411.4691,310.0646 429.5295,326.4527 445.5189,340.9616 " fill="none" style="stroke: #A80036; stroke-width: 1.0;"/><polygon fill="none" points="389.774,299.8306,379.6667,281.2068,399.1819,289.4627,389.774,299.8306" style="stroke: #A80036; stroke-width: 1.0;"/></g></svg>