<?xml version="1.0" encoding="UTF-8" standalone="yes"?><svg xmlns="http://www.w3.org/2000/svg" xmlns:xlink="http://www.w3.org/1999/xlink" height="522px" style="width:874px;height:522px;" version="1.1" viewBox="0 0 874 522" width="874px"><defs><filter height="300%" id="f1" width="300%" x="-1" y="-1"><feGaussianBlur result="blurOut" stdDeviation="2.0"/><feColorMatrix in="blurOut" result="blurOut2" type="matrix" values="0 0 0 0 0 0 0 0 0 0 0 0 0 0 0 0 0 0 .4 0"/><feOffset dx="4.0" dy="4.0" in="blurOut2" result="blurOut3"/><feBlend in="SourceGraphic" in2="blurOut3" mode="normal"/></filter></defs><g><rect fill="#FEFECE" filter="url(#f1)" height="86.8652" style="stroke: #A80036; stroke-width: 1.5;" width="240" x="610" y="237"/><ellipse cx="693.75" cy="253" fill="#B4A7E5" rx="11" ry="11" style="stroke: #A80036; stroke-width: 1.0;"/><path d="M689.6777,248.7651 L689.6777,246.6069 L697.0571,246.6069 L697.0571,248.7651 L694.5918,248.7651 L694.5918,256.8418 L697.0571,256.8418 L697.0571,259 L689.6777,259 L689.6777,256.8418 L692.1431,256.8418 L692.1431,248.7651 Z "/><text fill="#000000" font-family="sans-serif" font-size="12" font-style="italic" lengthAdjust="spacingAndGlyphs" textLength="52" x="714.25" y="257.5352">Producer</text><rect fill="#FFFFFF" height="16.1328" style="stroke: #000000; stroke-width: 1.0; stroke-dasharray: 2.0,2.0;" width="10" x="843" y="234"/><text fill="#000000" font-family="sans-serif" font-size="12" font-style="italic" lengthAdjust="spacingAndGlyphs" textLength="8" x="844" y="246.6016">T</text><line style="stroke: #A80036; stroke-width: 1.5;" x1="611" x2="849" y1="269" y2="269"/><line style="stroke: #A80036; stroke-width: 1.5;" x1="611" x2="849" y1="277" y2="277"/><ellipse cx="621" cy="288.9775" fill="#84BE84" rx="3" ry="3" style="stroke: #038048; stroke-width: 1.0;"/><text fill="#000000" font-family="sans-serif" font-size="11" lengthAdjust="spacingAndGlyphs" textLength="186" x="630" y="291.6348">T produce(CreationalContext&lt;T&gt;)</text><ellipse cx="621" cy="301.9326" fill="#84BE84" rx="3" ry="3" style="stroke: #038048; stroke-width: 1.0;"/><text fill="#000000" font-family="sans-serif" font-size="11" lengthAdjust="spacingAndGlyphs" textLength="83" x="630" y="304.5898">void dispose(T)</text><ellipse cx="621" cy="314.8877" fill="#84BE84" rx="3" ry="3" style="stroke: #038048; stroke-width: 1.0;"/><text fill="#000000" font-family="sans-serif" font-size="11" lengthAdjust="spacingAndGlyphs" textLength="214" x="630" y="317.5449">Set&lt;InjectionPoint&gt; getInjectionPoints()</text><rect fill="#FEFECE" filter="url(#f1)" height="86.8652" style="stroke: #A80036; stroke-width: 1.5;" width="225" x="405.5" y="427"/><ellipse cx="464.75" cy="443" fill="#B4A7E5" rx="11" ry="11" style="stroke: #A80036; stroke-width: 1.0;"/><path d="M460.6777,438.7651 L460.6777,436.6069 L468.0571,436.6069 L468.0571,438.7651 L465.5918,438.7651 L465.5918,446.8418 L468.0571,446.8418 L468.0571,449 L460.6777,449 L460.6777,446.8418 L463.1431,446.8418 L463.1431,438.7651 Z "/><text fill="#000000" font-family="sans-serif" font-size="12" font-style="italic" lengthAdjust="spacingAndGlyphs" textLength="86" x="485.25" y="447.5352">InjectionTarget</text><rect fill="#FFFFFF" height="16.1328" style="stroke: #000000; stroke-width: 1.0; stroke-dasharray: 2.0,2.0;" width="10" x="623.5" y="424"/><text fill="#000000" font-family="sans-serif" font-size="12" font-style="italic" lengthAdjust="spacingAndGlyphs" textLength="8" x="624.5" y="436.6016">T</text><line style="stroke: #A80036; stroke-width: 1.5;" x1="406.5" x2="629.5" y1="459" y2="459"/><line style="stroke: #A80036; stroke-width: 1.5;" x1="406.5" x2="629.5" y1="467" y2="467"/><ellipse cx="416.5" cy="478.9775" fill="#84BE84" rx="3" ry="3" style="stroke: #038048; stroke-width: 1.0;"/><text fill="#000000" font-family="sans-serif" font-size="11" lengthAdjust="spacingAndGlyphs" textLength="199" x="425.5" y="481.6348">void inject(T, CreationalContext&lt;T&gt;)</text><ellipse cx="416.5" cy="491.9326" fill="#84BE84" rx="3" ry="3" style="stroke: #038048; stroke-width: 1.0;"/><text fill="#000000" font-family="sans-serif" font-size="11" lengthAdjust="spacingAndGlyphs" textLength="119" x="425.5" y="494.5898">void postConstruct(T)</text><ellipse cx="416.5" cy="504.8877" fill="#84BE84" rx="3" ry="3" style="stroke: #038048; stroke-width: 1.0;"/><text fill="#000000" font-family="sans-serif" font-size="11" lengthAdjust="spacingAndGlyphs" textLength="101" x="425.5" y="507.5449">void preDestroy(T)</text><rect fill="#FEFECE" filter="url(#f1)" height="60.9551" style="stroke: #A80036; stroke-width: 1.5;" width="271" x="594.5" y="40.5"/><ellipse cx="673.25" cy="56.5" fill="#B4A7E5" rx="11" ry="11" style="stroke: #A80036; stroke-width: 1.0;"/><path d="M669.1777,52.2651 L669.1777,50.1069 L676.5571,50.1069 L676.5571,52.2651 L674.0918,52.2651 L674.0918,60.3418 L676.5571,60.3418 L676.5571,62.5 L669.1777,62.5 L669.1777,60.3418 L671.6431,60.3418 L671.6431,52.2651 Z "/><text fill="#000000" font-family="sans-serif" font-size="12" font-style="italic" lengthAdjust="spacingAndGlyphs" textLength="93" x="693.75" y="61.0352">ProducerFactory</text><rect fill="#FFFFFF" height="16.1328" style="stroke: #000000; stroke-width: 1.0; stroke-dasharray: 2.0,2.0;" width="10" x="858.5" y="37.5"/><text fill="#000000" font-family="sans-serif" font-size="12" font-style="italic" lengthAdjust="spacingAndGlyphs" textLength="8" x="859.5" y="50.1016">X</text><line style="stroke: #A80036; stroke-width: 1.5;" x1="595.5" x2="864.5" y1="72.5" y2="72.5"/><line style="stroke: #A80036; stroke-width: 1.5;" x1="595.5" x2="864.5" y1="80.5" y2="80.5"/><ellipse cx="605.5" cy="92.4775" fill="#84BE84" rx="3" ry="3" style="stroke: #038048; stroke-width: 1.0;"/><text fill="#000000" font-family="sans-serif" font-size="11" lengthAdjust="spacingAndGlyphs" textLength="245" x="614.5" y="95.1348">&lt;T&gt; Producer&lt;T&gt; createProducer(Bean&lt;T&gt;)</text><rect fill="#FEFECE" filter="url(#f1)" height="60.9551" style="stroke: #A80036; stroke-width: 1.5;" width="307" x="267.5" y="250"/><ellipse cx="347.25" cy="266" fill="#B4A7E5" rx="11" ry="11" style="stroke: #A80036; stroke-width: 1.0;"/><path d="M343.1777,261.7651 L343.1777,259.6069 L350.5571,259.6069 L350.5571,261.7651 L348.0918,261.7651 L348.0918,269.8418 L350.5571,269.8418 L350.5571,272 L343.1777,272 L343.1777,269.8418 L345.6431,269.8418 L345.6431,261.7651 Z "/><text fill="#000000" font-family="sans-serif" font-size="12" font-style="italic" lengthAdjust="spacingAndGlyphs" textLength="127" x="367.75" y="270.5352">InjectionTargetFactory</text><rect fill="#FFFFFF" height="16.1328" style="stroke: #000000; stroke-width: 1.0; stroke-dasharray: 2.0,2.0;" width="10" x="567.5" y="247"/><text fill="#000000" font-family="sans-serif" font-size="12" font-style="italic" lengthAdjust="spacingAndGlyphs" textLength="8" x="568.5" y="259.6016">T</text><line style="stroke: #A80036; stroke-width: 1.5;" x1="268.5" x2="573.5" y1="282" y2="282"/><line style="stroke: #A80036; stroke-width: 1.5;" x1="268.5" x2="573.5" y1="290" y2="290"/><ellipse cx="278.5" cy="301.9775" fill="#84BE84" rx="3" ry="3" style="stroke: #038048; stroke-width: 1.0;"/><text fill="#000000" font-family="sans-serif" font-size="11" lengthAdjust="spacingAndGlyphs" textLength="281" x="287.5" y="304.6348">InjectionTarget&lt;T&gt; createInjectionTarget(Bean&lt;T&gt;)</text><rect fill="#FEFECE" filter="url(#f1)" height="125.7305" style="stroke: #A80036; stroke-width: 1.5;" width="252" x="6" y="8"/><ellipse cx="73.75" cy="24" fill="#B4A7E5" rx="11" ry="11" style="stroke: #A80036; stroke-width: 1.0;"/><path d="M69.6777,19.7651 L69.6777,17.6069 L77.0571,17.6069 L77.0571,19.7651 L74.5918,19.7651 L74.5918,27.8418 L77.0571,27.8418 L77.0571,30 L69.6777,30 L69.6777,27.8418 L72.1431,27.8418 L72.1431,19.7651 Z "/><text fill="#000000" font-family="sans-serif" font-size="12" font-style="italic" lengthAdjust="spacingAndGlyphs" textLength="96" x="94.25" y="28.5352">ObserverMethod</text><rect fill="#FFFFFF" height="16.1328" style="stroke: #000000; stroke-width: 1.0; stroke-dasharray: 2.0,2.0;" width="10" x="251" y="5"/><text fill="#000000" font-family="sans-serif" font-size="12" font-style="italic" lengthAdjust="spacingAndGlyphs" textLength="8" x="252" y="17.6016">T</text><line style="stroke: #A80036; stroke-width: 1.5;" x1="7" x2="257" y1="40" y2="40"/><line style="stroke: #A80036; stroke-width: 1.5;" x1="7" x2="257" y1="48" y2="48"/><ellipse cx="17" cy="59.9775" fill="#84BE84" rx="3" ry="3" style="stroke: #038048; stroke-width: 1.0;"/><text fill="#000000" font-family="sans-serif" font-size="11" lengthAdjust="spacingAndGlyphs" textLength="134" x="26" y="62.6348">Class&lt;?&gt; getBeanClass()</text><ellipse cx="17" cy="72.9326" fill="#84BE84" rx="3" ry="3" style="stroke: #038048; stroke-width: 1.0;"/><text fill="#000000" font-family="sans-serif" font-size="11" lengthAdjust="spacingAndGlyphs" textLength="132" x="26" y="75.5898">Type getObservedType()</text><ellipse cx="17" cy="85.8877" fill="#84BE84" rx="3" ry="3" style="stroke: #038048; stroke-width: 1.0;"/><text fill="#000000" font-family="sans-serif" font-size="11" lengthAdjust="spacingAndGlyphs" textLength="226" x="26" y="88.5449">Set&lt;Annotation&gt; getObservedQualifiers()</text><ellipse cx="17" cy="98.8428" fill="#84BE84" rx="3" ry="3" style="stroke: #038048; stroke-width: 1.0;"/><text fill="#000000" font-family="sans-serif" font-size="11" lengthAdjust="spacingAndGlyphs" textLength="134" x="26" y="101.5">Reception getReception()</text><ellipse cx="17" cy="111.7979" fill="#84BE84" rx="3" ry="3" style="stroke: #038048; stroke-width: 1.0;"/><text fill="#000000" font-family="sans-serif" font-size="11" lengthAdjust="spacingAndGlyphs" textLength="218" x="26" y="114.4551">TransactionPhase getTransactionPhase()</text><ellipse cx="17" cy="124.7529" fill="#84BE84" rx="3" ry="3" style="stroke: #038048; stroke-width: 1.0;"/><text fill="#000000" font-family="sans-serif" font-size="11" lengthAdjust="spacingAndGlyphs" textLength="72" x="26" y="127.4102">void notify(T)</text><rect fill="#FEFECE" filter="url(#f1)" height="86.8652" style="stroke: #A80036; stroke-width: 1.5;" width="200" x="293" y="27.5"/><ellipse cx="346.25" cy="43.5" fill="#B4A7E5" rx="11" ry="11" style="stroke: #A80036; stroke-width: 1.0;"/><path d="M342.1777,39.2651 L342.1777,37.1069 L349.5571,37.1069 L349.5571,39.2651 L347.0918,39.2651 L347.0918,47.3418 L349.5571,47.3418 L349.5571,49.5 L342.1777,49.5 L342.1777,47.3418 L344.6431,47.3418 L344.6431,39.2651 Z "/><text fill="#000000" font-family="sans-serif" font-size="12" font-style="italic" lengthAdjust="spacingAndGlyphs" textLength="85" x="366.75" y="48.0352">EventMetadata</text><line style="stroke: #A80036; stroke-width: 1.5;" x1="294" x2="492" y1="59.5" y2="59.5"/><line style="stroke: #A80036; stroke-width: 1.5;" x1="294" x2="492" y1="67.5" y2="67.5"/><ellipse cx="304" cy="79.4775" fill="#84BE84" rx="3" ry="3" style="stroke: #038048; stroke-width: 1.0;"/><text fill="#000000" font-family="sans-serif" font-size="11" lengthAdjust="spacingAndGlyphs" textLength="174" x="313" y="82.1348">Set&lt;Annotation&gt; getQualifiers()</text><ellipse cx="304" cy="92.4326" fill="#84BE84" rx="3" ry="3" style="stroke: #038048; stroke-width: 1.0;"/><text fill="#000000" font-family="sans-serif" font-size="11" lengthAdjust="spacingAndGlyphs" textLength="174" x="313" y="95.0898">InjectionPoint getInjectionPoint()</text><ellipse cx="304" cy="105.3877" fill="#84BE84" rx="3" ry="3" style="stroke: #038048; stroke-width: 1.0;"/><text fill="#000000" font-family="sans-serif" font-size="11" lengthAdjust="spacingAndGlyphs" textLength="80" x="313" y="108.0449">Type getType()</text><rect fill="#FEFECE" filter="url(#f1)" height="138.6855" style="stroke: #A80036; stroke-width: 1.5;" width="200" x="32" y="211"/><ellipse cx="89.75" cy="227" fill="#B4A7E5" rx="11" ry="11" style="stroke: #A80036; stroke-width: 1.0;"/><path d="M85.6777,222.7651 L85.6777,220.6069 L93.0571,220.6069 L93.0571,222.7651 L90.5918,222.7651 L90.5918,230.8418 L93.0571,230.8418 L93.0571,233 L85.6777,233 L85.6777,230.8418 L88.1431,230.8418 L88.1431,222.7651 Z "/><text fill="#000000" font-family="sans-serif" font-size="12" font-style="italic" lengthAdjust="spacingAndGlyphs" textLength="76" x="110.25" y="231.5352">InjectionPoint</text><line style="stroke: #A80036; stroke-width: 1.5;" x1="33" x2="231" y1="243" y2="243"/><line style="stroke: #A80036; stroke-width: 1.5;" x1="33" x2="231" y1="251" y2="251"/><ellipse cx="43" cy="262.9775" fill="#84BE84" rx="3" ry="3" style="stroke: #038048; stroke-width: 1.0;"/><text fill="#000000" font-family="sans-serif" font-size="11" lengthAdjust="spacingAndGlyphs" textLength="80" x="52" y="265.6348">Type getType()</text><ellipse cx="43" cy="275.9326" fill="#84BE84" rx="3" ry="3" style="stroke: #038048; stroke-width: 1.0;"/><text fill="#000000" font-family="sans-serif" font-size="11" lengthAdjust="spacingAndGlyphs" textLength="174" x="52" y="278.5898">Set&lt;Annotation&gt; getQualifiers()</text><ellipse cx="43" cy="288.8877" fill="#84BE84" rx="3" ry="3" style="stroke: #038048; stroke-width: 1.0;"/><text fill="#000000" font-family="sans-serif" font-size="11" lengthAdjust="spacingAndGlyphs" textLength="101" x="52" y="291.5449">Bean&lt;?&gt; getBean()</text><ellipse cx="43" cy="301.8428" fill="#84BE84" rx="3" ry="3" style="stroke: #038048; stroke-width: 1.0;"/><text fill="#000000" font-family="sans-serif" font-size="11" lengthAdjust="spacingAndGlyphs" textLength="114" x="52" y="304.5">Member getMember()</text><ellipse cx="43" cy="314.7979" fill="#84BE84" rx="3" ry="3" style="stroke: #038048; stroke-width: 1.0;"/><text fill="#000000" font-family="sans-serif" font-size="11" lengthAdjust="spacingAndGlyphs" textLength="140" x="52" y="317.4551">Annotated getAnnotated()</text><ellipse cx="43" cy="327.7529" fill="#84BE84" rx="3" ry="3" style="stroke: #038048; stroke-width: 1.0;"/><text fill="#000000" font-family="sans-serif" font-size="11" lengthAdjust="spacingAndGlyphs" textLength="109" x="52" y="330.4102">boolean isDelegate()</text><ellipse cx="43" cy="340.708" fill="#84BE84" rx="3" ry="3" style="stroke: #038048; stroke-width: 1.0;"/><text fill="#000000" font-family="sans-serif" font-size="11" lengthAdjust="spacingAndGlyphs" textLength="114" x="52" y="343.3652">boolean isTransient()</text><path d="M666.671,337.66 C634.497,366.191 596.028,400.306 566.282,426.6837 " fill="none" style="stroke: #A80036; stroke-width: 1.0;"/><polygon fill="none" points="662.286,332.193,681.894,324.16,671.575,342.667,662.286,332.193" style="stroke: #A80036; stroke-width: 1.0;"/><path d="M730,101.73 C730,135.62 730,191.496 730,231.562 " fill="none" style="stroke: #A80036; stroke-width: 1.0; stroke-dasharray: 7.0,7.0;"/><polygon fill="#A80036" points="730,236.86,734,227.86,730,231.86,726,227.86,730,236.86" style="stroke: #A80036; stroke-width: 1.0;"/><text fill="#000000" font-family="sans-serif" font-size="13" lengthAdjust="spacingAndGlyphs" textLength="54" x="731" y="177.5684">provides</text><path d="M436.37,311.289 C451.759,341.115 475.671,387.461 493.645,422.2961 " fill="none" style="stroke: #A80036; stroke-width: 1.0; stroke-dasharray: 7.0,7.0;"/><polygon fill="#A80036" points="496.029,426.9161,495.4563,417.0839,493.7361,422.4728,488.3471,420.7526,496.029,426.9161" style="stroke: #A80036; stroke-width: 1.0;"/><text fill="#000000" font-family="sans-serif" font-size="13" lengthAdjust="spacingAndGlyphs" textLength="54" x="480" y="393.5684">provides</text></g></svg>