<?xml version="1.0" encoding="UTF-8" standalone="no"?><svg xmlns="http://www.w3.org/2000/svg" xmlns:xlink="http://www.w3.org/1999/xlink" contentScriptType="application/ecmascript" contentStyleType="text/css" height="726px" preserveAspectRatio="none" style="width:684px;height:726px;" version="1.1" viewBox="0 0 684 726" width="684px" zoomAndPan="magnify"><defs><filter height="300%" id="f3n785x" width="300%" x="-1" y="-1"><feGaussianBlur result="blurOut" stdDeviation="2.0"/><feColorMatrix in="blurOut" result="blurOut2" type="matrix" values="0 0 0 0 0 0 0 0 0 0 0 0 0 0 0 0 0 0 .4 0"/><feOffset dx="4.0" dy="4.0" in="blurOut2" result="blurOut3"/><feBlend in="SourceGraphic" in2="blurOut3" mode="normal"/></filter></defs><g><!--class Instance--><rect fill="#FEFECE" filter="url(#f3n785x)" height="125.7305" style="stroke: #A80036; stroke-width: 1.5;" width="352" x="44.5" y="8"/><ellipse cx="186.75" cy="24" fill="#B4A7E5" rx="11" ry="11" style="stroke: #A80036; stroke-width: 1.0;"/><path d="M182.6777,19.7651 L182.6777,17.6069 L190.0571,17.6069 L190.0571,19.7651 L187.5918,19.7651 L187.5918,27.8418 L190.0571,27.8418 L190.0571,30 L182.6777,30 L182.6777,27.8418 L185.1431,27.8418 L185.1431,19.7651 Z "/><text fill="#000000" font-family="sans-serif" font-size="12" font-style="italic" lengthAdjust="spacingAndGlyphs" textLength="47" x="207.25" y="28.5352">Instance</text><rect fill="#FFFFFF" height="16.1328" style="stroke: #000000; stroke-width: 1.0; stroke-dasharray: 2.0,2.0;" width="10" x="389.5" y="5"/><text fill="#000000" font-family="sans-serif" font-size="12" font-style="italic" lengthAdjust="spacingAndGlyphs" textLength="8" x="390.5" y="17.6016">T</text><line style="stroke: #A80036; stroke-width: 1.5;" x1="45.5" x2="395.5" y1="40" y2="40"/><line style="stroke: #A80036; stroke-width: 1.5;" x1="45.5" x2="395.5" y1="48" y2="48"/><ellipse cx="55.5" cy="59.9775" fill="#84BE84" rx="3" ry="3" style="stroke: #038048; stroke-width: 1.0;"/><text fill="#000000" font-family="sans-serif" font-size="11" lengthAdjust="spacingAndGlyphs" textLength="180" x="64.5" y="62.6348">Instance&lt;T&gt; select(Annotation[])</text><ellipse cx="55.5" cy="72.9326" fill="#84BE84" rx="3" ry="3" style="stroke: #038048; stroke-width: 1.0;"/><text fill="#000000" font-family="sans-serif" font-size="11" lengthAdjust="spacingAndGlyphs" textLength="296" x="64.5" y="75.5898">Instance&lt;V extends T&gt; select(Class&lt;V&gt;, Annotation[])</text><ellipse cx="55.5" cy="85.8877" fill="#84BE84" rx="3" ry="3" style="stroke: #038048; stroke-width: 1.0;"/><text fill="#000000" font-family="sans-serif" font-size="11" lengthAdjust="spacingAndGlyphs" textLength="326" x="64.5" y="88.5449">Instance&lt;V extends T&gt; select(TypeLiteral&lt;V&gt;, Annotation[])</text><ellipse cx="55.5" cy="98.8428" fill="#84BE84" rx="3" ry="3" style="stroke: #038048; stroke-width: 1.0;"/><text fill="#000000" font-family="sans-serif" font-size="11" lengthAdjust="spacingAndGlyphs" textLength="123" x="64.5" y="101.5">boolean isUnsatisfied()</text><ellipse cx="55.5" cy="111.7979" fill="#84BE84" rx="3" ry="3" style="stroke: #038048; stroke-width: 1.0;"/><text fill="#000000" font-family="sans-serif" font-size="11" lengthAdjust="spacingAndGlyphs" textLength="125" x="64.5" y="114.4551">boolean isAmbiguous()</text><ellipse cx="55.5" cy="124.7529" fill="#84BE84" rx="3" ry="3" style="stroke: #038048; stroke-width: 1.0;"/><text fill="#000000" font-family="sans-serif" font-size="11" lengthAdjust="spacingAndGlyphs" textLength="82" x="64.5" y="127.4102">void destroy(T)</text><!--class CDI--><rect fill="#FEFECE" filter="url(#f3n785x)" height="73.9102" style="stroke: #A80036; stroke-width: 1.5;" width="196" x="122.5" y="237"/><ellipse cx="200.25" cy="253" fill="#ADD1B2" rx="11" ry="11" style="stroke: #A80036; stroke-width: 1.0;"/><path d="M203.2231,258.6431 Q202.6421,258.9419 202.0029,259.0913 Q201.3638,259.2407 200.6582,259.2407 Q198.1514,259.2407 196.8315,257.5889 Q195.5117,255.937 195.5117,252.8159 Q195.5117,249.6865 196.8315,248.0347 Q198.1514,246.3828 200.6582,246.3828 Q201.3638,246.3828 202.0112,246.5322 Q202.6587,246.6816 203.2231,246.9805 L203.2231,249.7031 Q202.5923,249.1221 201.9988,248.8523 Q201.4053,248.5825 200.7744,248.5825 Q199.4297,248.5825 198.7449,249.6492 Q198.0601,250.7158 198.0601,252.8159 Q198.0601,254.9077 198.7449,255.9744 Q199.4297,257.041 200.7744,257.041 Q201.4053,257.041 201.9988,256.7712 Q202.5923,256.5015 203.2231,255.9204 Z "/><text fill="#000000" font-family="sans-serif" font-size="12" lengthAdjust="spacingAndGlyphs" textLength="20" x="220.75" y="257.5352">CDI</text><rect fill="#FFFFFF" height="16.1328" style="stroke: #000000; stroke-width: 1.0; stroke-dasharray: 2.0,2.0;" width="10" x="311.5" y="234"/><text fill="#000000" font-family="sans-serif" font-size="12" font-style="italic" lengthAdjust="spacingAndGlyphs" textLength="8" x="312.5" y="246.6016">T</text><line style="stroke: #A80036; stroke-width: 1.5;" x1="123.5" x2="317.5" y1="269" y2="269"/><line style="stroke: #A80036; stroke-width: 1.5;" x1="123.5" x2="317.5" y1="277" y2="277"/><ellipse cx="133.5" cy="288.9775" fill="#84BE84" rx="3" ry="3" style="stroke: #038048; stroke-width: 1.0;"/><text fill="#000000" font-family="sans-serif" font-size="11" lengthAdjust="spacingAndGlyphs" text-decoration="underline" textLength="123" x="142.5" y="291.6348">CDI&lt;Object&gt; current()</text><line style="stroke: #000000; stroke-width: 1.0;" x1="142.5" x2="265.5" y1="293.6348" y2="293.6348"/><ellipse cx="133.5" cy="301.9326" fill="#84BE84" rx="3" ry="3" style="stroke: #038048; stroke-width: 1.0;"/><text fill="#000000" font-family="sans-serif" font-size="11" font-style="italic" lengthAdjust="spacingAndGlyphs" textLength="170" x="142.5" y="304.5898">BeanManager getBeanManager()</text><!--class Unmanaged--><rect fill="#FEFECE" filter="url(#f3n785x)" height="86.8652" style="stroke: #A80036; stroke-width: 1.5;" width="237" x="432" y="27.5"/><ellipse cx="505.75" cy="43.5" fill="#ADD1B2" rx="11" ry="11" style="stroke: #A80036; stroke-width: 1.0;"/><path d="M508.7231,49.1431 Q508.1421,49.4419 507.5029,49.5913 Q506.8638,49.7407 506.1582,49.7407 Q503.6514,49.7407 502.3315,48.0889 Q501.0117,46.437 501.0117,43.3159 Q501.0117,40.1865 502.3315,38.5347 Q503.6514,36.8828 506.1582,36.8828 Q506.8638,36.8828 507.5112,37.0322 Q508.1587,37.1816 508.7231,37.4805 L508.7231,40.2031 Q508.0923,39.6221 507.4988,39.3523 Q506.9053,39.0825 506.2744,39.0825 Q504.9297,39.0825 504.2449,40.1492 Q503.5601,41.2158 503.5601,43.3159 Q503.5601,45.4077 504.2449,46.4744 Q504.9297,47.541 506.2744,47.541 Q506.9053,47.541 507.4988,47.2712 Q508.0923,47.0015 508.7231,46.4204 Z "/><text fill="#000000" font-family="sans-serif" font-size="12" lengthAdjust="spacingAndGlyphs" textLength="69" x="526.25" y="48.0352">Unmanaged</text><rect fill="#FFFFFF" height="16.1328" style="stroke: #000000; stroke-width: 1.0; stroke-dasharray: 2.0,2.0;" width="10" x="662" y="24.5"/><text fill="#000000" font-family="sans-serif" font-size="12" font-style="italic" lengthAdjust="spacingAndGlyphs" textLength="8" x="663" y="37.1016">T</text><line style="stroke: #A80036; stroke-width: 1.5;" x1="433" x2="668" y1="59.5" y2="59.5"/><line style="stroke: #A80036; stroke-width: 1.5;" x1="433" x2="668" y1="67.5" y2="67.5"/><ellipse cx="443" cy="79.4775" fill="#84BE84" rx="3" ry="3" style="stroke: #038048; stroke-width: 1.0;"/><text fill="#000000" font-family="sans-serif" font-size="11" lengthAdjust="spacingAndGlyphs" textLength="203" x="452" y="82.1348">Unmanaged(BeanManager, Class&lt;T&gt;)</text><ellipse cx="443" cy="92.4326" fill="#84BE84" rx="3" ry="3" style="stroke: #038048; stroke-width: 1.0;"/><text fill="#000000" font-family="sans-serif" font-size="11" lengthAdjust="spacingAndGlyphs" textLength="126" x="452" y="95.0898">Unmanaged(Class&lt;T&gt;)</text><ellipse cx="443" cy="105.3877" fill="#84BE84" rx="3" ry="3" style="stroke: #038048; stroke-width: 1.0;"/><text fill="#000000" font-family="sans-serif" font-size="11" lengthAdjust="spacingAndGlyphs" textLength="211" x="452" y="108.0449">UnmanagedInstance&lt;T&gt; newInstance()</text><!--class UnmanagedInstance--><rect fill="#FEFECE" filter="url(#f3n785x)" height="125.7305" style="stroke: #A80036; stroke-width: 1.5;" width="249" x="426" y="211"/><ellipse cx="482.25" cy="227" fill="#ADD1B2" rx="11" ry="11" style="stroke: #A80036; stroke-width: 1.0;"/><path d="M485.2231,232.6431 Q484.6421,232.9419 484.0029,233.0913 Q483.3638,233.2407 482.6582,233.2407 Q480.1514,233.2407 478.8315,231.5889 Q477.5117,229.937 477.5117,226.8159 Q477.5117,223.6865 478.8315,222.0347 Q480.1514,220.3828 482.6582,220.3828 Q483.3638,220.3828 484.0112,220.5322 Q484.6587,220.6816 485.2231,220.9805 L485.2231,223.7031 Q484.5923,223.1221 483.9988,222.8523 Q483.4053,222.5825 482.7744,222.5825 Q481.4297,222.5825 480.7449,223.6492 Q480.0601,224.7158 480.0601,226.8159 Q480.0601,228.9077 480.7449,229.9744 Q481.4297,231.041 482.7744,231.041 Q483.4053,231.041 483.9988,230.7712 Q484.5923,230.5015 485.2231,229.9204 Z "/><text fill="#000000" font-family="sans-serif" font-size="12" lengthAdjust="spacingAndGlyphs" textLength="116" x="502.75" y="231.5352">UnmanagedInstance</text><rect fill="#FFFFFF" height="16.1328" style="stroke: #000000; stroke-width: 1.0; stroke-dasharray: 2.0,2.0;" width="10" x="668" y="208"/><text fill="#000000" font-family="sans-serif" font-size="12" font-style="italic" lengthAdjust="spacingAndGlyphs" textLength="8" x="669" y="220.6016">T</text><line style="stroke: #A80036; stroke-width: 1.5;" x1="427" x2="674" y1="243" y2="243"/><line style="stroke: #A80036; stroke-width: 1.5;" x1="427" x2="674" y1="251" y2="251"/><ellipse cx="437" cy="262.9775" fill="#84BE84" rx="3" ry="3" style="stroke: #038048; stroke-width: 1.0;"/><text fill="#000000" font-family="sans-serif" font-size="11" lengthAdjust="spacingAndGlyphs" textLength="35" x="446" y="265.6348">T get()</text><ellipse cx="437" cy="275.9326" fill="#84BE84" rx="3" ry="3" style="stroke: #038048; stroke-width: 1.0;"/><text fill="#000000" font-family="sans-serif" font-size="11" lengthAdjust="spacingAndGlyphs" textLength="190" x="446" y="278.5898">UnmanagedInstance&lt;T&gt; produce()</text><ellipse cx="437" cy="288.8877" fill="#84BE84" rx="3" ry="3" style="stroke: #038048; stroke-width: 1.0;"/><text fill="#000000" font-family="sans-serif" font-size="11" lengthAdjust="spacingAndGlyphs" textLength="174" x="446" y="291.5449">UnmanagedInstance&lt;T&gt; inject()</text><ellipse cx="437" cy="301.8428" fill="#84BE84" rx="3" ry="3" style="stroke: #038048; stroke-width: 1.0;"/><text fill="#000000" font-family="sans-serif" font-size="11" lengthAdjust="spacingAndGlyphs" textLength="223" x="446" y="304.5">UnmanagedInstance&lt;T&gt; postConstruct()</text><ellipse cx="437" cy="314.7979" fill="#84BE84" rx="3" ry="3" style="stroke: #038048; stroke-width: 1.0;"/><text fill="#000000" font-family="sans-serif" font-size="11" lengthAdjust="spacingAndGlyphs" textLength="205" x="446" y="317.4551">UnmanagedInstance&lt;T&gt; preDestroy()</text><ellipse cx="437" cy="327.7529" fill="#84BE84" rx="3" ry="3" style="stroke: #038048; stroke-width: 1.0;"/><text fill="#000000" font-family="sans-serif" font-size="11" lengthAdjust="spacingAndGlyphs" textLength="187" x="446" y="330.4102">UnmanagedInstance&lt;T&gt; dispose()</text><!--class BeanManager--><rect fill="#FEFECE" filter="url(#f3n785x)" height="303.1016" style="stroke: #A80036; stroke-width: 1.5;" width="429" x="6" y="414"/><ellipse cx="177.25" cy="430" fill="#B4A7E5" rx="11" ry="11" style="stroke: #A80036; stroke-width: 1.0;"/><path d="M173.1777,425.7651 L173.1777,423.6069 L180.5571,423.6069 L180.5571,425.7651 L178.0918,425.7651 L178.0918,433.8418 L180.5571,433.8418 L180.5571,436 L173.1777,436 L173.1777,433.8418 L175.6431,433.8418 L175.6431,425.7651 Z "/><text fill="#000000" font-family="sans-serif" font-size="12" font-style="italic" lengthAdjust="spacingAndGlyphs" textLength="78" x="197.75" y="434.5352">BeanManager</text><line style="stroke: #A80036; stroke-width: 1.5;" x1="7" x2="434" y1="446" y2="446"/><ellipse cx="17" cy="457.9775" fill="#84BE84" rx="3" ry="3" style="stroke: #038048; stroke-width: 1.0;"/><text fill="#000000" font-family="sans-serif" font-size="11" lengthAdjust="spacingAndGlyphs" textLength="326" x="26" y="460.6348">Object getReference(Bean&lt;?&gt;, Type, CreationalContext&lt;?&gt; )</text><ellipse cx="17" cy="470.9326" fill="#84BE84" rx="3" ry="3" style="stroke: #038048; stroke-width: 1.0;"/><text fill="#000000" font-family="sans-serif" font-size="11" lengthAdjust="spacingAndGlyphs" textLength="370" x="26" y="473.5898">Object getInjectableReference(InjectionPoint, CreationalContext&lt;?&gt; )</text><ellipse cx="17" cy="483.8877" fill="#84BE84" rx="3" ry="3" style="stroke: #038048; stroke-width: 1.0;"/><text fill="#000000" font-family="sans-serif" font-size="11" lengthAdjust="spacingAndGlyphs" textLength="241" x="26" y="486.5449">Set&lt;Bean&lt;?&gt;&gt; getBeans(Type, Annotation[])</text><ellipse cx="17" cy="496.8428" fill="#84BE84" rx="3" ry="3" style="stroke: #038048; stroke-width: 1.0;"/><text fill="#000000" font-family="sans-serif" font-size="11" lengthAdjust="spacingAndGlyphs" textLength="292" x="26" y="499.5">Bean&lt;? extends X&gt; resolve(Set&lt;Bean&lt;? extends X&gt;&gt;)</text><ellipse cx="17" cy="509.7979" fill="#84BE84" rx="3" ry="3" style="stroke: #038048; stroke-width: 1.0;"/><text fill="#000000" font-family="sans-serif" font-size="11" lengthAdjust="spacingAndGlyphs" textLength="148" x="26" y="512.4551">void validate(InjectionPoint)</text><ellipse cx="17" cy="522.7529" fill="#84BE84" rx="3" ry="3" style="stroke: #038048; stroke-width: 1.0;"/><text fill="#000000" font-family="sans-serif" font-size="11" lengthAdjust="spacingAndGlyphs" textLength="190" x="26" y="525.4102">void fireEvent(Object, Annotation[])</text><ellipse cx="17" cy="552.6631" fill="#84BE84" rx="3" ry="3" style="stroke: #038048; stroke-width: 1.0;"/><text fill="#000000" font-family="sans-serif" font-size="11" lengthAdjust="spacingAndGlyphs" textLength="270" x="26" y="555.3203">boolean isQualifier(Class&lt;? extends Annotation&gt;)</text><ellipse cx="17" cy="565.6182" fill="#84BE84" rx="3" ry="3" style="stroke: #038048; stroke-width: 1.0;"/><text fill="#000000" font-family="sans-serif" font-size="11" lengthAdjust="spacingAndGlyphs" textLength="281" x="26" y="568.2754">boolean isStereotype(Class&lt;? extends Annotation&gt;)</text><ellipse cx="17" cy="578.5732" fill="#84BE84" rx="3" ry="3" style="stroke: #038048; stroke-width: 1.0;"/><text fill="#000000" font-family="sans-serif" font-size="11" lengthAdjust="spacingAndGlyphs" textLength="304" x="26" y="581.2305">boolean areQualifiersEquivalent(Annotation, Annotation)</text><ellipse cx="17" cy="591.5283" fill="#84BE84" rx="3" ry="3" style="stroke: #038048; stroke-width: 1.0;"/><text fill="#000000" font-family="sans-serif" font-size="11" lengthAdjust="spacingAndGlyphs" textLength="358" x="26" y="594.1855">boolean areInterceptorBindingsEquivalent(Annotation, Annotation)</text><ellipse cx="17" cy="604.4834" fill="#84BE84" rx="3" ry="3" style="stroke: #038048; stroke-width: 1.0;"/><text fill="#000000" font-family="sans-serif" font-size="11" lengthAdjust="spacingAndGlyphs" textLength="275" x="26" y="607.1406">Context getContext(Class&lt;? extends Annotation&gt;)</text><ellipse cx="17" cy="617.4385" fill="#84BE84" rx="3" ry="3" style="stroke: #038048; stroke-width: 1.0;"/><text fill="#000000" font-family="sans-serif" font-size="11" lengthAdjust="spacingAndGlyphs" textLength="144" x="26" y="620.0957">ELResolver getELResolver()</text><ellipse cx="17" cy="630.3936" fill="#84BE84" rx="3" ry="3" style="stroke: #038048; stroke-width: 1.0;"/><text fill="#000000" font-family="sans-serif" font-size="11" lengthAdjust="spacingAndGlyphs" textLength="337" x="26" y="633.0508">ExpressionFactory wrapExpressionFactory(ExpressionFactory)</text><ellipse cx="17" cy="643.3486" fill="#84BE84" rx="3" ry="3" style="stroke: #038048; stroke-width: 1.0;"/><text fill="#000000" font-family="sans-serif" font-size="11" lengthAdjust="spacingAndGlyphs" textLength="287" x="26" y="646.0059">AnnotatedType&lt;T&gt; createAnnotatedType(Class&lt;T&gt;)</text><ellipse cx="17" cy="656.3037" fill="#84BE84" rx="3" ry="3" style="stroke: #038048; stroke-width: 1.0;"/><text fill="#000000" font-family="sans-serif" font-size="11" lengthAdjust="spacingAndGlyphs" textLength="338" x="26" y="658.9609">InjectionTarget&lt;T&gt; createInjectionTarget(AnnotatedType&lt;T&gt;)</text><ellipse cx="17" cy="669.2588" fill="#84BE84" rx="3" ry="3" style="stroke: #038048; stroke-width: 1.0;"/><text fill="#000000" font-family="sans-serif" font-size="11" lengthAdjust="spacingAndGlyphs" textLength="402" x="26" y="671.916">InjectionTargetFactory&lt;T&gt; getInjectionTargetFactory(AnnotatedType&lt;T&gt;)</text><ellipse cx="17" cy="682.2139" fill="#84BE84" rx="3" ry="3" style="stroke: #038048; stroke-width: 1.0;"/><text fill="#000000" font-family="sans-serif" font-size="11" lengthAdjust="spacingAndGlyphs" textLength="334" x="26" y="684.8711">BeanAttributes&lt;T&gt; createBeanAttributes(AnnotatedType&lt;T&gt;)</text><ellipse cx="17" cy="695.1689" fill="#84BE84" rx="3" ry="3" style="stroke: #038048; stroke-width: 1.0;"/><text fill="#000000" font-family="sans-serif" font-size="11" lengthAdjust="spacingAndGlyphs" textLength="403" x="26" y="697.8262">Bean&lt;T&gt; createBean(BeanAttributes&lt;T&gt;, Class&lt;X&gt;, ProducerFactory&lt;X&gt;)</text><ellipse cx="17" cy="708.124" fill="#84BE84" rx="3" ry="3" style="stroke: #038048; stroke-width: 1.0;"/><text fill="#000000" font-family="sans-serif" font-size="11" lengthAdjust="spacingAndGlyphs" textLength="294" x="26" y="710.7813">InjectionPoint createInjectionPoint(AnnotatedField&lt;?&gt;)</text><line style="stroke: #A80036; stroke-width: 1.0; stroke-dasharray: 1.0,2.0;" x1="7" x2="158.5" y1="538.208" y2="538.208"/><text fill="#000000" font-family="sans-serif" font-size="11" lengthAdjust="spacingAndGlyphs" textLength="124" x="158.5" y="541.8652">some methods skipped</text><line style="stroke: #A80036; stroke-width: 1.0; stroke-dasharray: 1.0,2.0;" x1="282.5" x2="434" y1="538.208" y2="538.208"/><ellipse cx="629.5" cy="565.5" fill="#FEFECE" filter="url(#f3n785x)" rx="5" ry="5" style="stroke: #A80036; stroke-width: 1.5;"/><text fill="#000000" font-family="sans-serif" font-size="12" lengthAdjust="spacingAndGlyphs" textLength="25" x="617" y="582.1016">JNDI</text><path d="M220.5,154.518 C220.5,183.2026 220.5,213.8664 220.5,236.9474 " fill="none" style="stroke: #A80036; stroke-width: 1.0;"/><polygon fill="none" points="213.5001,154.1177,220.5,134.1177,227.5001,154.1177,213.5001,154.1177" style="stroke: #A80036; stroke-width: 1.0;"/><path d="M550.5,114.5486 C550.5,141.0897 550.5,175.5812 550.5,205.6929 " fill="none" style="stroke: #A80036; stroke-width: 1.0;"/><polygon fill="#A80036" points="550.5,210.8725,554.5,201.8725,550.5,205.8725,546.5,201.8725,550.5,210.8725" style="stroke: #A80036; stroke-width: 1.0;"/><text fill="#000000" font-family="sans-serif" font-size="13" lengthAdjust="spacingAndGlyphs" textLength="45" x="551.5" y="177.5684">returns</text><path d="M220.5,311.2148 C220.5,336.5963 220.5,372.1087 220.5,408.5601 " fill="none" style="stroke: #A80036; stroke-width: 1.0;"/><polygon fill="#A80036" points="220.5,413.9439,224.5,404.9439,220.5,408.9439,216.5,404.9439,220.5,413.9439" style="stroke: #A80036; stroke-width: 1.0;"/><text fill="#000000" font-family="sans-serif" font-size="13" lengthAdjust="spacingAndGlyphs" textLength="45" x="221.5" y="380.5684">returns</text><path d="M435.1813,565.5 C520.4269,565.5 603.3075,565.5 624.3768,565.5 " fill="none" style="stroke: #A80036; stroke-width: 1.0;"/><text fill="#000000" font-family="sans-serif" font-size="13" lengthAdjust="spacingAndGlyphs" textLength="153" x="453.25" y="559.0684">java:comp/BeanManager</text></g></svg>