<?xml version="1.0" encoding="UTF-8" standalone="yes"?><svg xmlns="http://www.w3.org/2000/svg" xmlns:xlink="http://www.w3.org/1999/xlink" height="449px" style="width:1206px;height:449px;" version="1.1" viewBox="0 0 1206 449" width="1206px"><defs><filter height="300%" id="f1" width="300%" x="-1" y="-1"><feGaussianBlur result="blurOut" stdDeviation="2.0"/><feColorMatrix in="blurOut" result="blurOut2" type="matrix" values="0 0 0 0 0 0 0 0 0 0 0 0 0 0 0 0 0 0 .4 0"/><feOffset dx="4.0" dy="4.0" in="blurOut2" result="blurOut3"/><feBlend in="SourceGraphic" in2="blurOut3" mode="normal"/></filter></defs><g><rect fill="#FEFECE" filter="url(#f1)" height="112.7754" style="stroke: #A80036; stroke-width: 1.5;" width="389" x="6" y="8"/><ellipse cx="136.25" cy="24" fill="#B4A7E5" rx="11" ry="11" style="stroke: #A80036; stroke-width: 1.0;"/><path d="M132.1777,19.7651 L132.1777,17.6069 L139.5571,17.6069 L139.5571,19.7651 L137.0918,19.7651 L137.0918,27.8418 L139.5571,27.8418 L139.5571,30 L132.1777,30 L132.1777,27.8418 L134.6431,27.8418 L134.6431,19.7651 Z "/><text fill="#000000" font-family="sans-serif" font-size="12" font-style="italic" lengthAdjust="spacingAndGlyphs" textLength="120" x="156.75" y="28.5352">BeforeBeanDiscovery</text><line style="stroke: #A80036; stroke-width: 1.5;" x1="7" x2="394" y1="40" y2="40"/><line style="stroke: #A80036; stroke-width: 1.5;" x1="7" x2="394" y1="48" y2="48"/><ellipse cx="17" cy="59.9775" fill="#84BE84" rx="3" ry="3" style="stroke: #038048; stroke-width: 1.0;"/><text fill="#000000" font-family="sans-serif" font-size="11" lengthAdjust="spacingAndGlyphs" textLength="235" x="26" y="62.6348">addQualifier(Class&lt;? extends Annotation&gt;)</text><ellipse cx="17" cy="72.9326" fill="#84BE84" rx="3" ry="3" style="stroke: #038048; stroke-width: 1.0;"/><text fill="#000000" font-family="sans-serif" font-size="11" lengthAdjust="spacingAndGlyphs" textLength="319" x="26" y="75.5898">addScope(Class&lt;? extends Annotation&gt;, boolean, boolean)</text><ellipse cx="17" cy="85.8877" fill="#84BE84" rx="3" ry="3" style="stroke: #038048; stroke-width: 1.0;"/><text fill="#000000" font-family="sans-serif" font-size="11" lengthAdjust="spacingAndGlyphs" textLength="320" x="26" y="88.5449">addStereotype(Class&lt;? extends Annotation&gt;, Annotation[])</text><ellipse cx="17" cy="98.8428" fill="#84BE84" rx="3" ry="3" style="stroke: #038048; stroke-width: 1.0;"/><text fill="#000000" font-family="sans-serif" font-size="11" lengthAdjust="spacingAndGlyphs" textLength="363" x="26" y="101.5">addInterceptorBinding(Class&lt;? extends Annotation&gt;, Annotation[])</text><ellipse cx="17" cy="111.7979" fill="#84BE84" rx="3" ry="3" style="stroke: #038048; stroke-width: 1.0;"/><text fill="#000000" font-family="sans-serif" font-size="11" lengthAdjust="spacingAndGlyphs" textLength="215" x="26" y="114.4551">addAnnotatedType(AnnotatedType&lt;?&gt;)</text><rect fill="#FEFECE" filter="url(#f1)" height="99.8203" style="stroke: #A80036; stroke-width: 1.5;" width="279" x="430" y="14.5"/><ellipse cx="509.25" cy="30.5" fill="#B4A7E5" rx="11" ry="11" style="stroke: #A80036; stroke-width: 1.0;"/><path d="M505.1777,26.2651 L505.1777,24.1069 L512.5571,24.1069 L512.5571,26.2651 L510.0918,26.2651 L510.0918,34.3418 L512.5571,34.3418 L512.5571,36.5 L505.1777,36.5 L505.1777,34.3418 L507.6431,34.3418 L507.6431,26.2651 Z "/><text fill="#000000" font-family="sans-serif" font-size="12" font-style="italic" lengthAdjust="spacingAndGlyphs" textLength="112" x="529.75" y="35.0352">AfterTypeDiscovery</text><line style="stroke: #A80036; stroke-width: 1.5;" x1="431" x2="708" y1="46.5" y2="46.5"/><line style="stroke: #A80036; stroke-width: 1.5;" x1="431" x2="708" y1="54.5" y2="54.5"/><ellipse cx="441" cy="66.4775" fill="#84BE84" rx="3" ry="3" style="stroke: #038048; stroke-width: 1.0;"/><text fill="#000000" font-family="sans-serif" font-size="11" lengthAdjust="spacingAndGlyphs" textLength="181" x="450" y="69.1348">List&lt;Class&lt;?&gt;&gt; getAlternatives()</text><ellipse cx="441" cy="79.4326" fill="#84BE84" rx="3" ry="3" style="stroke: #038048; stroke-width: 1.0;"/><text fill="#000000" font-family="sans-serif" font-size="11" lengthAdjust="spacingAndGlyphs" textLength="183" x="450" y="82.0898">List&lt;Class&lt;?&gt;&gt; getInterceptors()</text><ellipse cx="441" cy="92.3877" fill="#84BE84" rx="3" ry="3" style="stroke: #038048; stroke-width: 1.0;"/><text fill="#000000" font-family="sans-serif" font-size="11" lengthAdjust="spacingAndGlyphs" textLength="177" x="450" y="95.0449">List&lt;Class&lt;?&gt;&gt; getDecorators()</text><ellipse cx="441" cy="105.3428" fill="#84BE84" rx="3" ry="3" style="stroke: #038048; stroke-width: 1.0;"/><text fill="#000000" font-family="sans-serif" font-size="11" lengthAdjust="spacingAndGlyphs" textLength="253" x="450" y="108">addAnnotatedType(AnnotatedType&lt;?&gt;, String)</text><rect fill="#FEFECE" filter="url(#f1)" height="48" style="stroke: #A80036; stroke-width: 1.5;" width="186" x="744.5" y="40.5"/><ellipse cx="759.5" cy="56.5" fill="#B4A7E5" rx="11" ry="11" style="stroke: #A80036; stroke-width: 1.0;"/><path d="M755.4277,52.2651 L755.4277,50.1069 L762.8071,50.1069 L762.8071,52.2651 L760.3418,52.2651 L760.3418,60.3418 L762.8071,60.3418 L762.8071,62.5 L755.4277,62.5 L755.4277,60.3418 L757.8931,60.3418 L757.8931,52.2651 Z "/><text fill="#000000" font-family="sans-serif" font-size="12" font-style="italic" lengthAdjust="spacingAndGlyphs" textLength="154" x="773.5" y="61.0352">AfterDeploymentValidation</text><line style="stroke: #A80036; stroke-width: 1.5;" x1="745.5" x2="929.5" y1="72.5" y2="72.5"/><line style="stroke: #A80036; stroke-width: 1.5;" x1="745.5" x2="929.5" y1="80.5" y2="80.5"/><rect fill="#FEFECE" filter="url(#f1)" height="48" style="stroke: #A80036; stroke-width: 1.5;" width="124" x="965.5" y="40.5"/><ellipse cx="980.5" cy="56.5" fill="#B4A7E5" rx="11" ry="11" style="stroke: #A80036; stroke-width: 1.0;"/><path d="M976.4277,52.2651 L976.4277,50.1069 L983.8071,50.1069 L983.8071,52.2651 L981.3418,52.2651 L981.3418,60.3418 L983.8071,60.3418 L983.8071,62.5 L976.4277,62.5 L976.4277,60.3418 L978.8931,60.3418 L978.8931,52.2651 Z "/><text fill="#000000" font-family="sans-serif" font-size="12" font-style="italic" lengthAdjust="spacingAndGlyphs" textLength="92" x="994.5" y="61.0352">BeforeShutdown</text><line style="stroke: #A80036; stroke-width: 1.5;" x1="966.5" x2="1088.5" y1="72.5" y2="72.5"/><line style="stroke: #A80036; stroke-width: 1.5;" x1="966.5" x2="1088.5" y1="80.5" y2="80.5"/><rect fill="#FEFECE" filter="url(#f1)" height="112.7754" style="stroke: #A80036; stroke-width: 1.5;" width="361" x="20" y="181"/><ellipse cx="140.75" cy="197" fill="#B4A7E5" rx="11" ry="11" style="stroke: #A80036; stroke-width: 1.0;"/><path d="M136.6777,192.7651 L136.6777,190.6069 L144.0571,190.6069 L144.0571,192.7651 L141.5918,192.7651 L141.5918,200.8418 L144.0571,200.8418 L144.0571,203 L136.6777,203 L136.6777,200.8418 L139.1431,200.8418 L139.1431,192.7651 Z "/><text fill="#000000" font-family="sans-serif" font-size="12" font-style="italic" lengthAdjust="spacingAndGlyphs" textLength="111" x="161.25" y="201.5352">AfterBeanDiscovery</text><line style="stroke: #A80036; stroke-width: 1.5;" x1="21" x2="380" y1="213" y2="213"/><line style="stroke: #A80036; stroke-width: 1.5;" x1="21" x2="380" y1="221" y2="221"/><ellipse cx="31" cy="232.9775" fill="#84BE84" rx="3" ry="3" style="stroke: #038048; stroke-width: 1.0;"/><text fill="#000000" font-family="sans-serif" font-size="11" lengthAdjust="spacingAndGlyphs" textLength="101" x="40" y="235.6348">addBean(Bean&lt;?&gt;)</text><ellipse cx="31" cy="245.9326" fill="#84BE84" rx="3" ry="3" style="stroke: #038048; stroke-width: 1.0;"/><text fill="#000000" font-family="sans-serif" font-size="11" lengthAdjust="spacingAndGlyphs" textLength="231" x="40" y="248.5898">addObserverMethod(ObserverMethod&lt;?&gt;)</text><ellipse cx="31" cy="258.8877" fill="#84BE84" rx="3" ry="3" style="stroke: #038048; stroke-width: 1.0;"/><text fill="#000000" font-family="sans-serif" font-size="11" lengthAdjust="spacingAndGlyphs" textLength="114" x="40" y="261.5449">addContext(Context)</text><ellipse cx="31" cy="271.8428" fill="#84BE84" rx="3" ry="3" style="stroke: #038048; stroke-width: 1.0;"/><text fill="#000000" font-family="sans-serif" font-size="11" lengthAdjust="spacingAndGlyphs" textLength="309" x="40" y="274.5">AnnotatedType&lt;T&gt; getAnnotatedType(Class&lt;T&gt;, String)</text><ellipse cx="31" cy="284.7979" fill="#84BE84" rx="3" ry="3" style="stroke: #038048; stroke-width: 1.0;"/><text fill="#000000" font-family="sans-serif" font-size="11" lengthAdjust="spacingAndGlyphs" textLength="335" x="40" y="287.4551">Iterable&lt;AnnotatedType&lt;T&gt;&gt; getAnnotatedTypes(Class&lt;T&gt;)</text><rect fill="#FEFECE" filter="url(#f1)" height="86.8652" style="stroke: #A80036; stroke-width: 1.5;" width="265" x="416" y="194"/><ellipse cx="472.25" cy="210" fill="#B4A7E5" rx="11" ry="11" style="stroke: #A80036; stroke-width: 1.0;"/><path d="M468.1777,205.7651 L468.1777,203.6069 L475.5571,203.6069 L475.5571,205.7651 L473.0918,205.7651 L473.0918,213.8418 L475.5571,213.8418 L475.5571,216 L468.1777,216 L468.1777,213.8418 L470.6431,213.8418 L470.6431,205.7651 Z "/><text fill="#000000" font-family="sans-serif" font-size="12" font-style="italic" lengthAdjust="spacingAndGlyphs" textLength="132" x="492.75" y="214.5352">ProcessAnnotatedType</text><rect fill="#FFFFFF" height="16.1328" style="stroke: #000000; stroke-width: 1.0; stroke-dasharray: 2.0,2.0;" width="10" x="674" y="191"/><text fill="#000000" font-family="sans-serif" font-size="12" font-style="italic" lengthAdjust="spacingAndGlyphs" textLength="8" x="675" y="203.6016">X</text><line style="stroke: #A80036; stroke-width: 1.5;" x1="417" x2="680" y1="226" y2="226"/><line style="stroke: #A80036; stroke-width: 1.5;" x1="417" x2="680" y1="234" y2="234"/><ellipse cx="427" cy="245.9775" fill="#84BE84" rx="3" ry="3" style="stroke: #038048; stroke-width: 1.0;"/><text fill="#000000" font-family="sans-serif" font-size="11" lengthAdjust="spacingAndGlyphs" textLength="217" x="436" y="248.6348">AnnotatedType&lt;X&gt; getAnnotatedType()</text><ellipse cx="427" cy="258.9326" fill="#84BE84" rx="3" ry="3" style="stroke: #038048; stroke-width: 1.0;"/><text fill="#000000" font-family="sans-serif" font-size="11" lengthAdjust="spacingAndGlyphs" textLength="239" x="436" y="261.5898">void setAnnotatedType(AnnotatedType&lt;X&gt;)</text><ellipse cx="427" cy="271.8877" fill="#84BE84" rx="3" ry="3" style="stroke: #038048; stroke-width: 1.0;"/><text fill="#000000" font-family="sans-serif" font-size="11" lengthAdjust="spacingAndGlyphs" textLength="31" x="436" y="274.5449">veto()</text><rect fill="#FEFECE" filter="url(#f1)" height="73.9102" style="stroke: #A80036; stroke-width: 1.5;" width="166" x="716.5" y="200.5"/><ellipse cx="754" cy="216.5" fill="#B4A7E5" rx="11" ry="11" style="stroke: #A80036; stroke-width: 1.0;"/><path d="M749.9277,212.2651 L749.9277,210.1069 L757.3071,210.1069 L757.3071,212.2651 L754.8418,212.2651 L754.8418,220.3418 L757.3071,220.3418 L757.3071,222.5 L749.9277,222.5 L749.9277,220.3418 L752.3931,220.3418 L752.3931,212.2651 Z "/><text fill="#000000" font-family="sans-serif" font-size="12" font-style="italic" lengthAdjust="spacingAndGlyphs" textLength="72" x="773" y="221.0352">ProcessBean</text><rect fill="#FFFFFF" height="16.1328" style="stroke: #000000; stroke-width: 1.0; stroke-dasharray: 2.0,2.0;" width="10" x="875.5" y="197.5"/><text fill="#000000" font-family="sans-serif" font-size="12" font-style="italic" lengthAdjust="spacingAndGlyphs" textLength="8" x="876.5" y="210.1016">X</text><line style="stroke: #A80036; stroke-width: 1.5;" x1="717.5" x2="881.5" y1="232.5" y2="232.5"/><line style="stroke: #A80036; stroke-width: 1.5;" x1="717.5" x2="881.5" y1="240.5" y2="240.5"/><ellipse cx="727.5" cy="252.4775" fill="#84BE84" rx="3" ry="3" style="stroke: #038048; stroke-width: 1.0;"/><text fill="#000000" font-family="sans-serif" font-size="11" lengthAdjust="spacingAndGlyphs" textLength="140" x="736.5" y="255.1348">Annotated getAnnotated()</text><ellipse cx="727.5" cy="265.4326" fill="#84BE84" rx="3" ry="3" style="stroke: #038048; stroke-width: 1.0;"/><text fill="#000000" font-family="sans-serif" font-size="11" lengthAdjust="spacingAndGlyphs" textLength="103" x="736.5" y="268.0898">Bean&lt;X&gt; getBean()</text><rect fill="#FEFECE" filter="url(#f1)" height="99.8203" style="stroke: #A80036; stroke-width: 1.5;" width="237" x="918" y="187.5"/><ellipse cx="962.25" cy="203.5" fill="#B4A7E5" rx="11" ry="11" style="stroke: #A80036; stroke-width: 1.0;"/><path d="M958.1777,199.2651 L958.1777,197.1069 L965.5571,197.1069 L965.5571,199.2651 L963.0918,199.2651 L963.0918,207.3418 L965.5571,207.3418 L965.5571,209.5 L958.1777,209.5 L958.1777,207.3418 L960.6431,207.3418 L960.6431,199.2651 Z "/><text fill="#000000" font-family="sans-serif" font-size="12" font-style="italic" lengthAdjust="spacingAndGlyphs" textLength="128" x="982.75" y="208.0352">ProcessBeanAttributes</text><rect fill="#FFFFFF" height="16.1328" style="stroke: #000000; stroke-width: 1.0; stroke-dasharray: 2.0,2.0;" width="10" x="1148" y="184.5"/><text fill="#000000" font-family="sans-serif" font-size="12" font-style="italic" lengthAdjust="spacingAndGlyphs" textLength="8" x="1149" y="197.1016">T</text><line style="stroke: #A80036; stroke-width: 1.5;" x1="919" x2="1154" y1="219.5" y2="219.5"/><line style="stroke: #A80036; stroke-width: 1.5;" x1="919" x2="1154" y1="227.5" y2="227.5"/><ellipse cx="929" cy="239.4775" fill="#84BE84" rx="3" ry="3" style="stroke: #038048; stroke-width: 1.0;"/><text fill="#000000" font-family="sans-serif" font-size="11" lengthAdjust="spacingAndGlyphs" textLength="140" x="938" y="242.1348">Annotated getAnnotated()</text><ellipse cx="929" cy="252.4326" fill="#84BE84" rx="3" ry="3" style="stroke: #038048; stroke-width: 1.0;"/><text fill="#000000" font-family="sans-serif" font-size="11" lengthAdjust="spacingAndGlyphs" textLength="211" x="938" y="255.0898">BeanAttributes&lt;T&gt; getBeanAttributes()</text><ellipse cx="929" cy="265.3877" fill="#84BE84" rx="3" ry="3" style="stroke: #038048; stroke-width: 1.0;"/><text fill="#000000" font-family="sans-serif" font-size="11" lengthAdjust="spacingAndGlyphs" textLength="207" x="938" y="268.0449">setBeanAttributes(BeanAttributes&lt;T&gt;)</text><ellipse cx="929" cy="278.3428" fill="#84BE84" rx="3" ry="3" style="stroke: #038048; stroke-width: 1.0;"/><text fill="#000000" font-family="sans-serif" font-size="11" lengthAdjust="spacingAndGlyphs" textLength="31" x="938" y="281">veto()</text><rect fill="#FEFECE" filter="url(#f1)" height="73.9102" style="stroke: #A80036; stroke-width: 1.5;" width="200" x="100.5" y="360.5"/><ellipse cx="124.5" cy="376.5" fill="#B4A7E5" rx="11" ry="11" style="stroke: #A80036; stroke-width: 1.0;"/><path d="M120.4277,372.2651 L120.4277,370.1069 L127.8071,370.1069 L127.8071,372.2651 L125.3418,372.2651 L125.3418,380.3418 L127.8071,380.3418 L127.8071,382.5 L120.4277,382.5 L120.4277,380.3418 L122.8931,380.3418 L122.8931,372.2651 Z "/><text fill="#000000" font-family="sans-serif" font-size="12" font-style="italic" lengthAdjust="spacingAndGlyphs" textLength="120" x="140.5" y="381.0352">ProcessInjectionPoint</text><rect fill="#FFFFFF" height="16.1328" style="stroke: #000000; stroke-width: 1.0; stroke-dasharray: 2.0,2.0;" width="26" x="277.5" y="357.5"/><text fill="#000000" font-family="sans-serif" font-size="12" font-style="italic" lengthAdjust="spacingAndGlyphs" textLength="24" x="278.5" y="370.1016">T, X</text><line style="stroke: #A80036; stroke-width: 1.5;" x1="101.5" x2="299.5" y1="392.5" y2="392.5"/><line style="stroke: #A80036; stroke-width: 1.5;" x1="101.5" x2="299.5" y1="400.5" y2="400.5"/><ellipse cx="111.5" cy="412.4775" fill="#84BE84" rx="3" ry="3" style="stroke: #038048; stroke-width: 1.0;"/><text fill="#000000" font-family="sans-serif" font-size="11" lengthAdjust="spacingAndGlyphs" textLength="174" x="120.5" y="415.1348">InjectionPoint getInjectionPoint()</text><ellipse cx="111.5" cy="425.4326" fill="#84BE84" rx="3" ry="3" style="stroke: #038048; stroke-width: 1.0;"/><text fill="#000000" font-family="sans-serif" font-size="11" lengthAdjust="spacingAndGlyphs" textLength="170" x="120.5" y="428.0898">setInjectionPoint(InjectionPoint)</text><rect fill="#FEFECE" filter="url(#f1)" height="86.8652" style="stroke: #A80036; stroke-width: 1.5;" width="243" x="336" y="354"/><ellipse cx="382.25" cy="370" fill="#B4A7E5" rx="11" ry="11" style="stroke: #A80036; stroke-width: 1.0;"/><path d="M378.1777,365.7651 L378.1777,363.6069 L385.5571,363.6069 L385.5571,365.7651 L383.0918,365.7651 L383.0918,373.8418 L385.5571,373.8418 L385.5571,376 L378.1777,376 L378.1777,373.8418 L380.6431,373.8418 L380.6431,365.7651 Z "/><text fill="#000000" font-family="sans-serif" font-size="12" font-style="italic" lengthAdjust="spacingAndGlyphs" textLength="130" x="402.75" y="374.5352">ProcessInjectionTarget</text><rect fill="#FFFFFF" height="16.1328" style="stroke: #000000; stroke-width: 1.0; stroke-dasharray: 2.0,2.0;" width="10" x="572" y="351"/><text fill="#000000" font-family="sans-serif" font-size="12" font-style="italic" lengthAdjust="spacingAndGlyphs" textLength="8" x="573" y="363.6016">X</text><line style="stroke: #A80036; stroke-width: 1.5;" x1="337" x2="578" y1="386" y2="386"/><line style="stroke: #A80036; stroke-width: 1.5;" x1="337" x2="578" y1="394" y2="394"/><ellipse cx="347" cy="405.9775" fill="#84BE84" rx="3" ry="3" style="stroke: #038048; stroke-width: 1.0;"/><text fill="#000000" font-family="sans-serif" font-size="11" lengthAdjust="spacingAndGlyphs" textLength="217" x="356" y="408.6348">AnnotatedType&lt;X&gt; getAnnotatedType()</text><ellipse cx="347" cy="418.9326" fill="#84BE84" rx="3" ry="3" style="stroke: #038048; stroke-width: 1.0;"/><text fill="#000000" font-family="sans-serif" font-size="11" lengthAdjust="spacingAndGlyphs" textLength="215" x="356" y="421.5898">InjectionTarget&lt;X&gt; getInjectionTarget()</text><ellipse cx="347" cy="431.8877" fill="#84BE84" rx="3" ry="3" style="stroke: #038048; stroke-width: 1.0;"/><text fill="#000000" font-family="sans-serif" font-size="11" lengthAdjust="spacingAndGlyphs" textLength="211" x="356" y="434.5449">setInjectionTarget(InjectionTarget&lt;X&gt;)</text><rect fill="#FEFECE" filter="url(#f1)" height="73.9102" style="stroke: #A80036; stroke-width: 1.5;" width="271" x="614" y="360.5"/><ellipse cx="661.25" cy="376.5" fill="#B4A7E5" rx="11" ry="11" style="stroke: #A80036; stroke-width: 1.0;"/><path d="M657.1777,372.2651 L657.1777,370.1069 L664.5571,370.1069 L664.5571,372.2651 L662.0918,372.2651 L662.0918,380.3418 L664.5571,380.3418 L664.5571,382.5 L657.1777,382.5 L657.1777,380.3418 L659.6431,380.3418 L659.6431,372.2651 Z "/><text fill="#000000" font-family="sans-serif" font-size="12" font-style="italic" lengthAdjust="spacingAndGlyphs" textLength="140" x="681.75" y="381.0352">ProcessObserverMethod</text><rect fill="#FFFFFF" height="16.1328" style="stroke: #000000; stroke-width: 1.0; stroke-dasharray: 2.0,2.0;" width="26" x="862" y="357.5"/><text fill="#000000" font-family="sans-serif" font-size="12" font-style="italic" lengthAdjust="spacingAndGlyphs" textLength="24" x="863" y="370.1016">T, X</text><line style="stroke: #A80036; stroke-width: 1.5;" x1="615" x2="884" y1="392.5" y2="392.5"/><line style="stroke: #A80036; stroke-width: 1.5;" x1="615" x2="884" y1="400.5" y2="400.5"/><ellipse cx="625" cy="412.4775" fill="#84BE84" rx="3" ry="3" style="stroke: #038048; stroke-width: 1.0;"/><text fill="#000000" font-family="sans-serif" font-size="11" lengthAdjust="spacingAndGlyphs" textLength="245" x="634" y="415.1348">AnnotatedMethod&lt;X&gt; getAnnotatedMethod()</text><ellipse cx="625" cy="425.4326" fill="#84BE84" rx="3" ry="3" style="stroke: #038048; stroke-width: 1.0;"/><text fill="#000000" font-family="sans-serif" font-size="11" lengthAdjust="spacingAndGlyphs" textLength="233" x="634" y="428.0898">ObserverMethod&lt;T&gt; getObserverMethod()</text><rect fill="#FEFECE" filter="url(#f1)" height="86.8652" style="stroke: #A80036; stroke-width: 1.5;" width="277" x="920" y="354"/><ellipse cx="992.25" cy="370" fill="#B4A7E5" rx="11" ry="11" style="stroke: #A80036; stroke-width: 1.0;"/><path d="M988.1777,365.7651 L988.1777,363.6069 L995.5571,363.6069 L995.5571,365.7651 L993.0918,365.7651 L993.0918,373.8418 L995.5571,373.8418 L995.5571,376 L988.1777,376 L988.1777,373.8418 L990.6431,373.8418 L990.6431,365.7651 Z "/><text fill="#000000" font-family="sans-serif" font-size="12" font-style="italic" lengthAdjust="spacingAndGlyphs" textLength="96" x="1012.75" y="374.5352">ProcessProducer</text><rect fill="#FFFFFF" height="16.1328" style="stroke: #000000; stroke-width: 1.0; stroke-dasharray: 2.0,2.0;" width="26" x="1174" y="351"/><text fill="#000000" font-family="sans-serif" font-size="12" font-style="italic" lengthAdjust="spacingAndGlyphs" textLength="24" x="1175" y="363.6016">T, X</text><line style="stroke: #A80036; stroke-width: 1.5;" x1="921" x2="1196" y1="386" y2="386"/><line style="stroke: #A80036; stroke-width: 1.5;" x1="921" x2="1196" y1="394" y2="394"/><ellipse cx="931" cy="405.9775" fill="#84BE84" rx="3" ry="3" style="stroke: #038048; stroke-width: 1.0;"/><text fill="#000000" font-family="sans-serif" font-size="11" lengthAdjust="spacingAndGlyphs" textLength="251" x="940" y="408.6348">AnnotatedMember&lt;T&gt; getAnnotatedMember()</text><ellipse cx="931" cy="418.9326" fill="#84BE84" rx="3" ry="3" style="stroke: #038048; stroke-width: 1.0;"/><text fill="#000000" font-family="sans-serif" font-size="11" lengthAdjust="spacingAndGlyphs" textLength="151" x="940" y="421.5898">Producer&lt;X&gt; getProducer()</text><ellipse cx="931" cy="431.8877" fill="#84BE84" rx="3" ry="3" style="stroke: #038048; stroke-width: 1.0;"/><text fill="#000000" font-family="sans-serif" font-size="11" lengthAdjust="spacingAndGlyphs" textLength="147" x="940" y="434.5449">setProducer(Producer&lt;X&gt;)</text></g></svg>