<?xml version="1.0" encoding="UTF-8" standalone="no"?><svg xmlns="http://www.w3.org/2000/svg" xmlns:xlink="http://www.w3.org/1999/xlink" contentScriptType="application/ecmascript" contentStyleType="text/css" height="518px" preserveAspectRatio="none" style="width:811px;height:518px;" version="1.1" viewBox="0 0 811 518" width="811px" zoomAndPan="magnify"><defs><filter height="300%" id="f816m05" width="300%" x="-1" y="-1"><feGaussianBlur result="blurOut" stdDeviation="2.0"/><feColorMatrix in="blurOut" result="blurOut2" type="matrix" values="0 0 0 0 0 0 0 0 0 0 0 0 0 0 0 0 0 0 .4 0"/><feOffset dx="4.0" dy="4.0" in="blurOut2" result="blurOut3"/><feBlend in="SourceGraphic" in2="blurOut3" mode="normal"/></filter></defs><g><!--class Annotated--><rect fill="#FEFECE" filter="url(#f816m05)" height="112.7754" style="stroke: #A80036; stroke-width: 1.5;" width="350" x="110" y="8"/><ellipse cx="251.25" cy="24" fill="#B4A7E5" rx="11" ry="11" style="stroke: #A80036; stroke-width: 1.0;"/><path d="M247.1777,19.7651 L247.1777,17.6069 L254.5571,17.6069 L254.5571,19.7651 L252.0918,19.7651 L252.0918,27.8418 L254.5571,27.8418 L254.5571,30 L247.1777,30 L247.1777,27.8418 L249.6431,27.8418 L249.6431,19.7651 Z "/><text fill="#000000" font-family="sans-serif" font-size="12" font-style="italic" lengthAdjust="spacingAndGlyphs" textLength="59" x="271.75" y="28.5352">Annotated</text><line style="stroke: #A80036; stroke-width: 1.5;" x1="111" x2="459" y1="40" y2="40"/><line style="stroke: #A80036; stroke-width: 1.5;" x1="111" x2="459" y1="48" y2="48"/><ellipse cx="121" cy="59.9775" fill="#84BE84" rx="3" ry="3" style="stroke: #038048; stroke-width: 1.0;"/><text fill="#000000" font-family="sans-serif" font-size="11" lengthAdjust="spacingAndGlyphs" textLength="104" x="130" y="62.6348">Type getBaseType()</text><ellipse cx="121" cy="72.9326" fill="#84BE84" rx="3" ry="3" style="stroke: #038048; stroke-width: 1.0;"/><text fill="#000000" font-family="sans-serif" font-size="11" lengthAdjust="spacingAndGlyphs" textLength="156" x="130" y="75.5898">Set&lt;Type&gt; getTypeClosure()</text><ellipse cx="121" cy="85.8877" fill="#84BE84" rx="3" ry="3" style="stroke: #038048; stroke-width: 1.0;"/><text fill="#000000" font-family="sans-serif" font-size="11" lengthAdjust="spacingAndGlyphs" textLength="276" x="130" y="88.5449">&lt;T extends Annotation&gt; getAnnotation(Class&lt;T&gt;)</text><ellipse cx="121" cy="98.8428" fill="#84BE84" rx="3" ry="3" style="stroke: #038048; stroke-width: 1.0;"/><text fill="#000000" font-family="sans-serif" font-size="11" lengthAdjust="spacingAndGlyphs" textLength="188" x="130" y="101.5">Set&lt;Annotation&gt; getAnnotations()</text><ellipse cx="121" cy="111.7979" fill="#84BE84" rx="3" ry="3" style="stroke: #038048; stroke-width: 1.0;"/><text fill="#000000" font-family="sans-serif" font-size="11" lengthAdjust="spacingAndGlyphs" textLength="324" x="130" y="114.4551">boolean isAnnotationPresent(Class&lt;? extends Annotation&gt;)</text><!--class AnnotatedParameter--><rect fill="#FEFECE" filter="url(#f816m05)" height="73.9102" style="stroke: #A80036; stroke-width: 1.5;" width="270" x="6" y="187.5"/><ellipse cx="71.25" cy="203.5" fill="#B4A7E5" rx="11" ry="11" style="stroke: #A80036; stroke-width: 1.0;"/><path d="M67.1777,199.2651 L67.1777,197.1069 L74.5571,197.1069 L74.5571,199.2651 L72.0918,199.2651 L72.0918,207.3418 L74.5571,207.3418 L74.5571,209.5 L67.1777,209.5 L67.1777,207.3418 L69.6431,207.3418 L69.6431,199.2651 Z "/><text fill="#000000" font-family="sans-serif" font-size="12" font-style="italic" lengthAdjust="spacingAndGlyphs" textLength="119" x="91.75" y="208.0352">AnnotatedParameter</text><rect fill="#FFFFFF" height="16.1328" style="stroke: #000000; stroke-width: 1.0; stroke-dasharray: 2.0,2.0;" width="10" x="269" y="184.5"/><text fill="#000000" font-family="sans-serif" font-size="12" font-style="italic" lengthAdjust="spacingAndGlyphs" textLength="8" x="270" y="197.1016">X</text><line style="stroke: #A80036; stroke-width: 1.5;" x1="7" x2="275" y1="219.5" y2="219.5"/><line style="stroke: #A80036; stroke-width: 1.5;" x1="7" x2="275" y1="227.5" y2="227.5"/><ellipse cx="17" cy="239.4775" fill="#84BE84" rx="3" ry="3" style="stroke: #038048; stroke-width: 1.0;"/><text fill="#000000" font-family="sans-serif" font-size="11" lengthAdjust="spacingAndGlyphs" textLength="85" x="26" y="242.1348">int getPosition()</text><ellipse cx="17" cy="252.4326" fill="#84BE84" rx="3" ry="3" style="stroke: #038048; stroke-width: 1.0;"/><text fill="#000000" font-family="sans-serif" font-size="11" lengthAdjust="spacingAndGlyphs" textLength="244" x="26" y="255.0898">AnnotatedCallable&lt;X&gt; getDeclaringCallable()</text><!--class AnnotatedMember--><rect fill="#FEFECE" filter="url(#f816m05)" height="86.8652" style="stroke: #A80036; stroke-width: 1.5;" width="238" x="311" y="181"/><ellipse cx="366.25" cy="197" fill="#B4A7E5" rx="11" ry="11" style="stroke: #A80036; stroke-width: 1.0;"/><path d="M362.1777,192.7651 L362.1777,190.6069 L369.5571,190.6069 L369.5571,192.7651 L367.0918,192.7651 L367.0918,200.8418 L369.5571,200.8418 L369.5571,203 L362.1777,203 L362.1777,200.8418 L364.6431,200.8418 L364.6431,192.7651 Z "/><text fill="#000000" font-family="sans-serif" font-size="12" font-style="italic" lengthAdjust="spacingAndGlyphs" textLength="107" x="386.75" y="201.5352">AnnotatedMember</text><rect fill="#FFFFFF" height="16.1328" style="stroke: #000000; stroke-width: 1.0; stroke-dasharray: 2.0,2.0;" width="10" x="542" y="178"/><text fill="#000000" font-family="sans-serif" font-size="12" font-style="italic" lengthAdjust="spacingAndGlyphs" textLength="8" x="543" y="190.6016">X</text><line style="stroke: #A80036; stroke-width: 1.5;" x1="312" x2="548" y1="213" y2="213"/><line style="stroke: #A80036; stroke-width: 1.5;" x1="312" x2="548" y1="221" y2="221"/><ellipse cx="322" cy="232.9775" fill="#84BE84" rx="3" ry="3" style="stroke: #038048; stroke-width: 1.0;"/><text fill="#000000" font-family="sans-serif" font-size="11" lengthAdjust="spacingAndGlyphs" textLength="135" x="331" y="235.6348">Member getJavaMember()</text><ellipse cx="322" cy="245.9326" fill="#84BE84" rx="3" ry="3" style="stroke: #038048; stroke-width: 1.0;"/><text fill="#000000" font-family="sans-serif" font-size="11" lengthAdjust="spacingAndGlyphs" textLength="92" x="331" y="248.5898">boolean isStatic()</text><ellipse cx="322" cy="258.8877" fill="#84BE84" rx="3" ry="3" style="stroke: #038048; stroke-width: 1.0;"/><text fill="#000000" font-family="sans-serif" font-size="11" lengthAdjust="spacingAndGlyphs" textLength="212" x="331" y="261.5449">AnnotatedType&lt;X&gt; getDeclaringType()</text><!--class AnnotatedType--><rect fill="#FEFECE" filter="url(#f816m05)" height="99.8203" style="stroke: #A80036; stroke-width: 1.5;" width="307" x="495.5" y="14.5"/><ellipse cx="594.75" cy="30.5" fill="#B4A7E5" rx="11" ry="11" style="stroke: #A80036; stroke-width: 1.0;"/><path d="M590.6777,26.2651 L590.6777,24.1069 L598.0571,24.1069 L598.0571,26.2651 L595.5918,26.2651 L595.5918,34.3418 L598.0571,34.3418 L598.0571,36.5 L590.6777,36.5 L590.6777,34.3418 L593.1431,34.3418 L593.1431,26.2651 Z "/><text fill="#000000" font-family="sans-serif" font-size="12" font-style="italic" lengthAdjust="spacingAndGlyphs" textLength="88" x="615.25" y="35.0352">AnnotatedType</text><rect fill="#FFFFFF" height="16.1328" style="stroke: #000000; stroke-width: 1.0; stroke-dasharray: 2.0,2.0;" width="10" x="795.5" y="11.5"/><text fill="#000000" font-family="sans-serif" font-size="12" font-style="italic" lengthAdjust="spacingAndGlyphs" textLength="8" x="796.5" y="24.1016">X</text><line style="stroke: #A80036; stroke-width: 1.5;" x1="496.5" x2="801.5" y1="46.5" y2="46.5"/><line style="stroke: #A80036; stroke-width: 1.5;" x1="496.5" x2="801.5" y1="54.5" y2="54.5"/><ellipse cx="506.5" cy="66.4775" fill="#84BE84" rx="3" ry="3" style="stroke: #038048; stroke-width: 1.0;"/><text fill="#000000" font-family="sans-serif" font-size="11" lengthAdjust="spacingAndGlyphs" textLength="132" x="515.5" y="69.1348">Class&lt;X&gt; getJavaClass()</text><ellipse cx="506.5" cy="79.4326" fill="#84BE84" rx="3" ry="3" style="stroke: #038048; stroke-width: 1.0;"/><text fill="#000000" font-family="sans-serif" font-size="11" lengthAdjust="spacingAndGlyphs" textLength="281" x="515.5" y="82.0898">Set&lt;AnnotatedConstructor&lt;X&gt;&gt; getConstructors()</text><ellipse cx="506.5" cy="92.3877" fill="#84BE84" rx="3" ry="3" style="stroke: #038048; stroke-width: 1.0;"/><text fill="#000000" font-family="sans-serif" font-size="11" lengthAdjust="spacingAndGlyphs" textLength="271" x="515.5" y="95.0449">Set&lt;AnnotatedMethod&lt;? super X&gt;&gt; getMethods()</text><ellipse cx="506.5" cy="105.3428" fill="#84BE84" rx="3" ry="3" style="stroke: #038048; stroke-width: 1.0;"/><text fill="#000000" font-family="sans-serif" font-size="11" lengthAdjust="spacingAndGlyphs" textLength="241" x="515.5" y="108">Set&lt;AnnotatedField&lt;? super X&gt;&gt; getFields()</text><!--class AnnotatedCallable--><rect fill="#FEFECE" filter="url(#f816m05)" height="60.9551" style="stroke: #A80036; stroke-width: 1.5;" width="286" x="162" y="328"/><ellipse cx="242.25" cy="344" fill="#B4A7E5" rx="11" ry="11" style="stroke: #A80036; stroke-width: 1.0;"/><path d="M238.1777,339.7651 L238.1777,337.6069 L245.5571,337.6069 L245.5571,339.7651 L243.0918,339.7651 L243.0918,347.8418 L245.5571,347.8418 L245.5571,350 L238.1777,350 L238.1777,347.8418 L240.6431,347.8418 L240.6431,339.7651 Z "/><text fill="#000000" font-family="sans-serif" font-size="12" font-style="italic" lengthAdjust="spacingAndGlyphs" textLength="105" x="262.75" y="348.5352">AnnotatedCallable</text><rect fill="#FFFFFF" height="16.1328" style="stroke: #000000; stroke-width: 1.0; stroke-dasharray: 2.0,2.0;" width="10" x="441" y="325"/><text fill="#000000" font-family="sans-serif" font-size="12" font-style="italic" lengthAdjust="spacingAndGlyphs" textLength="8" x="442" y="337.6016">X</text><line style="stroke: #A80036; stroke-width: 1.5;" x1="163" x2="447" y1="360" y2="360"/><line style="stroke: #A80036; stroke-width: 1.5;" x1="163" x2="447" y1="368" y2="368"/><ellipse cx="173" cy="379.9775" fill="#84BE84" rx="3" ry="3" style="stroke: #038048; stroke-width: 1.0;"/><text fill="#000000" font-family="sans-serif" font-size="11" lengthAdjust="spacingAndGlyphs" textLength="260" x="182" y="382.6348">List&lt;AnnotatedParameter&lt;X&gt;&gt; getParameters()</text><!--class AnnotatedField--><rect fill="#FEFECE" filter="url(#f816m05)" height="60.9551" style="stroke: #A80036; stroke-width: 1.5;" width="143" x="483.5" y="328"/><ellipse cx="504.35" cy="344" fill="#B4A7E5" rx="11" ry="11" style="stroke: #A80036; stroke-width: 1.0;"/><path d="M500.2777,339.7651 L500.2777,337.6069 L507.6571,337.6069 L507.6571,339.7651 L505.1918,339.7651 L505.1918,347.8418 L507.6571,347.8418 L507.6571,350 L500.2777,350 L500.2777,347.8418 L502.7431,347.8418 L502.7431,339.7651 Z "/><text fill="#000000" font-family="sans-serif" font-size="12" font-style="italic" lengthAdjust="spacingAndGlyphs" textLength="86" x="519.65" y="348.5352">AnnotatedField</text><rect fill="#FFFFFF" height="16.1328" style="stroke: #000000; stroke-width: 1.0; stroke-dasharray: 2.0,2.0;" width="10" x="619.5" y="325"/><text fill="#000000" font-family="sans-serif" font-size="12" font-style="italic" lengthAdjust="spacingAndGlyphs" textLength="8" x="620.5" y="337.6016">X</text><line style="stroke: #A80036; stroke-width: 1.5;" x1="484.5" x2="625.5" y1="360" y2="360"/><line style="stroke: #A80036; stroke-width: 1.5;" x1="484.5" x2="625.5" y1="368" y2="368"/><ellipse cx="494.5" cy="379.9775" fill="#84BE84" rx="3" ry="3" style="stroke: #038048; stroke-width: 1.0;"/><text fill="#000000" font-family="sans-serif" font-size="11" lengthAdjust="spacingAndGlyphs" textLength="117" x="503.5" y="382.6348">Field getJavaMember()</text><!--class AnnotatedConstructor--><rect fill="#FEFECE" filter="url(#f816m05)" height="60.9551" style="stroke: #A80036; stroke-width: 1.5;" width="209" x="91.5" y="449"/><ellipse cx="124.5" cy="465" fill="#B4A7E5" rx="11" ry="11" style="stroke: #A80036; stroke-width: 1.0;"/><path d="M120.4277,460.7651 L120.4277,458.6069 L127.8071,458.6069 L127.8071,460.7651 L125.3418,460.7651 L125.3418,468.8418 L127.8071,468.8418 L127.8071,471 L120.4277,471 L120.4277,468.8418 L122.8931,468.8418 L122.8931,460.7651 Z "/><text fill="#000000" font-family="sans-serif" font-size="12" font-style="italic" lengthAdjust="spacingAndGlyphs" textLength="125" x="142.5" y="469.5352">AnnotatedConstructor</text><rect fill="#FFFFFF" height="16.1328" style="stroke: #000000; stroke-width: 1.0; stroke-dasharray: 2.0,2.0;" width="10" x="293.5" y="446"/><text fill="#000000" font-family="sans-serif" font-size="12" font-style="italic" lengthAdjust="spacingAndGlyphs" textLength="8" x="294.5" y="458.6016">X</text><line style="stroke: #A80036; stroke-width: 1.5;" x1="92.5" x2="299.5" y1="481" y2="481"/><line style="stroke: #A80036; stroke-width: 1.5;" x1="92.5" x2="299.5" y1="489" y2="489"/><ellipse cx="102.5" cy="500.9775" fill="#84BE84" rx="3" ry="3" style="stroke: #038048; stroke-width: 1.0;"/><text fill="#000000" font-family="sans-serif" font-size="11" lengthAdjust="spacingAndGlyphs" textLength="183" x="111.5" y="503.6348">Constructor&lt;X&gt; getJavaMember()</text><!--class AnnotatedMethod--><rect fill="#FEFECE" filter="url(#f816m05)" height="60.9551" style="stroke: #A80036; stroke-width: 1.5;" width="158" x="336" y="449"/><ellipse cx="356.4" cy="465" fill="#B4A7E5" rx="11" ry="11" style="stroke: #A80036; stroke-width: 1.0;"/><path d="M352.3277,460.7651 L352.3277,458.6069 L359.7071,458.6069 L359.7071,460.7651 L357.2418,460.7651 L357.2418,468.8418 L359.7071,468.8418 L359.7071,471 L352.3277,471 L352.3277,468.8418 L354.7931,468.8418 L354.7931,460.7651 Z "/><text fill="#000000" font-family="sans-serif" font-size="12" font-style="italic" lengthAdjust="spacingAndGlyphs" textLength="102" x="371.6" y="469.5352">AnnotatedMethod</text><rect fill="#FFFFFF" height="16.1328" style="stroke: #000000; stroke-width: 1.0; stroke-dasharray: 2.0,2.0;" width="10" x="487" y="446"/><text fill="#000000" font-family="sans-serif" font-size="12" font-style="italic" lengthAdjust="spacingAndGlyphs" textLength="8" x="488" y="458.6016">X</text><line style="stroke: #A80036; stroke-width: 1.5;" x1="337" x2="493" y1="481" y2="481"/><line style="stroke: #A80036; stroke-width: 1.5;" x1="337" x2="493" y1="489" y2="489"/><ellipse cx="347" cy="500.9775" fill="#84BE84" rx="3" ry="3" style="stroke: #038048; stroke-width: 1.0;"/><text fill="#000000" font-family="sans-serif" font-size="11" lengthAdjust="spacingAndGlyphs" textLength="132" x="356" y="503.6348">Method getJavaMember()</text><path d="M220.3841,136.2954 C204.5178,153.9247 188.1681,172.091 174.4608,187.3214 " fill="none" style="stroke: #A80036; stroke-width: 1.0;"/><polygon fill="none" points="215.2431,131.5437,233.8255,121.3605,225.6493,140.9092,215.2431,131.5437" style="stroke: #A80036; stroke-width: 1.0;"/><path d="M350.1081,136.3434 C363.8808,151.5409 378.0131,167.1351 390.4889,180.9015 " fill="none" style="stroke: #A80036; stroke-width: 1.0;"/><polygon fill="none" points="344.7734,140.8809,336.5298,121.3605,355.1472,131.4796,344.7734,140.8809" style="stroke: #A80036; stroke-width: 1.0;"/><path d="M480.4936,64.5 C485.4187,64.5 490.3437,64.5 495.2688,64.5 " fill="none" style="stroke: #A80036; stroke-width: 1.0;"/><polygon fill="none" points="480.2461,71.4999,460.2461,64.5,480.2461,57.4999,480.2461,71.4999" style="stroke: #A80036; stroke-width: 1.0;"/><path d="M375.7597,282.6456 C361.2118,298.2409 346.0563,314.4877 333.5208,327.9257 " fill="none" style="stroke: #A80036; stroke-width: 1.0;"/><polygon fill="none" points="370.6549,277.8558,389.4161,268.006,380.8922,287.4056,370.6549,277.8558" style="stroke: #A80036; stroke-width: 1.0;"/><path d="M484.2403,282.6456 C498.7882,298.2409 513.9437,314.4877 526.4792,327.9257 " fill="none" style="stroke: #A80036; stroke-width: 1.0;"/><polygon fill="none" points="479.1078,287.4056,470.5839,268.006,489.3451,277.8558,479.1078,287.4056" style="stroke: #A80036; stroke-width: 1.0;"/><path d="M263.9834,404.0322 C250.4619,419.0423 235.7589,435.3639 223.4965,448.9764 " fill="none" style="stroke: #A80036; stroke-width: 1.0;"/><polygon fill="none" points="258.9077,399.2081,277.4947,389.0334,269.3095,408.5783,258.9077,399.2081" style="stroke: #A80036; stroke-width: 1.0;"/><path d="M346.3929,404.0322 C360.0384,419.0423 374.8763,435.3639 387.2512,448.9764 " fill="none" style="stroke: #A80036; stroke-width: 1.0;"/><polygon fill="none" points="341.0315,408.541,332.7576,389.0334,351.3907,399.1235,341.0315,408.541" style="stroke: #A80036; stroke-width: 1.0;"/></g></svg>