<?xml version="1.0" encoding="UTF-8" standalone="no"?><svg xmlns="http://www.w3.org/2000/svg" xmlns:xlink="http://www.w3.org/1999/xlink" contentScriptType="application/ecmascript" contentStyleType="text/css" height="513px" preserveAspectRatio="none" style="width:841px;height:513px;" version="1.1" viewBox="0 0 841 513" width="841px" zoomAndPan="magnify"><defs><filter height="300%" id="fhbxuqn" width="300%" x="-1" y="-1"><feGaussianBlur result="blurOut" stdDeviation="2.0"/><feColorMatrix in="blurOut" result="blurOut2" type="matrix" values="0 0 0 0 0 0 0 0 0 0 0 0 0 0 0 0 0 0 .4 0"/><feOffset dx="4.0" dy="4.0" in="blurOut2" result="blurOut3"/><feBlend in="SourceGraphic" in2="blurOut3" mode="normal"/></filter></defs><g><ellipse cx="258.25" cy="20" fill="#000000" filter="url(#fhbxuqn)" rx="10" ry="10" style="stroke: none; stroke-width: 1.0;"/><rect fill="#FEFECE" filter="url(#fhbxuqn)" height="34.1328" rx="12.5" ry="12.5" style="stroke: #A80036; stroke-width: 1.5;" width="318" x="99.25" y="50"/><text fill="#000000" font-family="sans-serif" font-size="12" lengthAdjust="spacingAndGlyphs" textLength="298" x="109.25" y="71.6016">container retrieve injection point type and qualifiers</text><rect fill="#FEFECE" filter="url(#fhbxuqn)" height="48.2656" rx="12.5" ry="12.5" style="stroke: #A80036; stroke-width: 1.5;" width="330" x="93.25" y="104.1328"/><text fill="#000000" font-family="sans-serif" font-size="12" lengthAdjust="spacingAndGlyphs" textLength="303" x="103.25" y="125.7344">container browse all its beans and retains only those</text><text fill="#000000" font-family="sans-serif" font-size="12" lengthAdjust="spacingAndGlyphs" textLength="310" x="103.25" y="139.8672">having the type of the injection point in their types set</text><polygon fill="#FEFECE" filter="url(#fhbxuqn)" points="192.25,172.3984,324.25,172.3984,336.25,184.3984,324.25,196.3984,192.25,196.3984,180.25,184.3984,192.25,172.3984" style="stroke: #A80036; stroke-width: 1.5;"/><text fill="#000000" font-family="sans-serif" font-size="11" lengthAdjust="spacingAndGlyphs" textLength="132" x="192.25" y="188.5557">eligible Beans set empty?</text><text fill="#000000" font-family="sans-serif" font-size="11" lengthAdjust="spacingAndGlyphs" textLength="18" x="162.25" y="182.0781">yes</text><text fill="#000000" font-family="sans-serif" font-size="11" lengthAdjust="spacingAndGlyphs" textLength="14" x="336.25" y="182.0781">no</text><rect fill="#FF0000" filter="url(#fhbxuqn)" height="34.1328" rx="12.5" ry="12.5" style="stroke: #A80036; stroke-width: 1.5;" width="157" x="10" y="206.3984"/><text fill="#000000" font-family="sans-serif" font-size="12" lengthAdjust="spacingAndGlyphs" textLength="137" x="20" y="228">unsatisfied dependency</text><rect fill="#FEFECE" filter="url(#fhbxuqn)" height="48.2656" rx="12.5" ry="12.5" style="stroke: #A80036; stroke-width: 1.5;" width="302" x="277" y="206.3984"/><text fill="#000000" font-family="sans-serif" font-size="12" lengthAdjust="spacingAndGlyphs" textLength="220" x="287" y="228">container only retains beans having all</text><text fill="#000000" font-family="sans-serif" font-size="12" lengthAdjust="spacingAndGlyphs" textLength="282" x="287" y="242.1328">the injection point qualifiers in their qualifiers set</text><polygon fill="#FEFECE" filter="url(#fhbxuqn)" points="362,274.6641,494,274.6641,506,286.6641,494,298.6641,362,298.6641,350,286.6641,362,274.6641" style="stroke: #A80036; stroke-width: 1.5;"/><text fill="#000000" font-family="sans-serif" font-size="11" lengthAdjust="spacingAndGlyphs" textLength="132" x="362" y="290.8213">eligible Beans set empty?</text><text fill="#000000" font-family="sans-serif" font-size="11" lengthAdjust="spacingAndGlyphs" textLength="18" x="332" y="284.3438">yes</text><text fill="#000000" font-family="sans-serif" font-size="11" lengthAdjust="spacingAndGlyphs" textLength="14" x="506" y="284.3438">no</text><rect fill="#FF0000" filter="url(#fhbxuqn)" height="34.1328" rx="12.5" ry="12.5" style="stroke: #A80036; stroke-width: 1.5;" width="157" x="197" y="308.6641"/><text fill="#000000" font-family="sans-serif" font-size="12" lengthAdjust="spacingAndGlyphs" textLength="137" x="207" y="330.2656">unsatisfied dependency</text><polygon fill="#FEFECE" filter="url(#fhbxuqn)" points="500,308.6641,661,308.6641,673,320.6641,661,332.6641,500,332.6641,488,320.6641,500,308.6641" style="stroke: #A80036; stroke-width: 1.5;"/><text fill="#000000" font-family="sans-serif" font-size="11" lengthAdjust="spacingAndGlyphs" textLength="161" x="500" y="324.8213">there's only one eligible bean?</text><text fill="#000000" font-family="sans-serif" font-size="11" lengthAdjust="spacingAndGlyphs" textLength="14" x="474" y="318.3438">no</text><text fill="#000000" font-family="sans-serif" font-size="11" lengthAdjust="spacingAndGlyphs" textLength="18" x="673" y="318.3438">yes</text><rect fill="#FF0000" filter="url(#fhbxuqn)" height="34.1328" rx="12.5" ry="12.5" style="stroke: #A80036; stroke-width: 1.5;" width="158" x="384" y="342.6641"/><text fill="#000000" font-family="sans-serif" font-size="12" lengthAdjust="spacingAndGlyphs" textLength="138" x="394" y="364.2656">ambiguous dependency</text><rect fill="#008000" filter="url(#fhbxuqn)" height="34.1328" rx="12.5" ry="12.5" style="stroke: #A80036; stroke-width: 1.5;" width="272" x="562" y="342.6641"/><text fill="#000000" font-family="sans-serif" font-size="12" lengthAdjust="spacingAndGlyphs" textLength="252" x="572" y="364.2656">injection point is resolved with the last Bean</text><polygon fill="#FEFECE" filter="url(#fhbxuqn)" points="580.5,382.7969,592.5,394.7969,580.5,406.7969,568.5,394.7969,580.5,382.7969" style="stroke: #A80036; stroke-width: 1.5;"/><polygon fill="#FEFECE" filter="url(#fhbxuqn)" points="428,412.7969,440,424.7969,428,436.7969,416,424.7969,428,412.7969" style="stroke: #A80036; stroke-width: 1.5;"/><polygon fill="#FEFECE" filter="url(#fhbxuqn)" points="258.25,442.7969,270.25,454.7969,258.25,466.7969,246.25,454.7969,258.25,442.7969" style="stroke: #A80036; stroke-width: 1.5;"/><ellipse cx="258.25" cy="496.7969" fill="none" filter="url(#fhbxuqn)" rx="10" ry="10" style="stroke: #000000; stroke-width: 1.0;"/><ellipse cx="258.75" cy="497.2969" fill="#000000" filter="url(#fhbxuqn)" rx="6" ry="6" style="stroke: none; stroke-width: 1.0;"/><line style="stroke: #A80036; stroke-width: 1.5;" x1="258.25" x2="258.25" y1="30" y2="50"/><polygon fill="#A80036" points="254.25,40,258.25,50,262.25,40,258.25,44" style="stroke: #A80036; stroke-width: 1.0;"/><line style="stroke: #A80036; stroke-width: 1.5;" x1="258.25" x2="258.25" y1="84.1328" y2="104.1328"/><polygon fill="#A80036" points="254.25,94.1328,258.25,104.1328,262.25,94.1328,258.25,98.1328" style="stroke: #A80036; stroke-width: 1.0;"/><line style="stroke: #A80036; stroke-width: 1.5;" x1="488" x2="463" y1="320.6641" y2="320.6641"/><line style="stroke: #A80036; stroke-width: 1.5;" x1="463" x2="463" y1="320.6641" y2="342.6641"/><polygon fill="#A80036" points="459,332.6641,463,342.6641,467,332.6641,463,336.6641" style="stroke: #A80036; stroke-width: 1.0;"/><line style="stroke: #A80036; stroke-width: 1.5;" x1="673" x2="698" y1="320.6641" y2="320.6641"/><line style="stroke: #A80036; stroke-width: 1.5;" x1="698" x2="698" y1="320.6641" y2="342.6641"/><polygon fill="#A80036" points="694,332.6641,698,342.6641,702,332.6641,698,336.6641" style="stroke: #A80036; stroke-width: 1.0;"/><line style="stroke: #A80036; stroke-width: 1.5;" x1="463" x2="463" y1="376.7969" y2="394.7969"/><line style="stroke: #A80036; stroke-width: 1.5;" x1="463" x2="568.5" y1="394.7969" y2="394.7969"/><polygon fill="#A80036" points="558.5,390.7969,568.5,394.7969,558.5,398.7969,562.5,394.7969" style="stroke: #A80036; stroke-width: 1.0;"/><line style="stroke: #A80036; stroke-width: 1.5;" x1="698" x2="698" y1="376.7969" y2="394.7969"/><line style="stroke: #A80036; stroke-width: 1.5;" x1="698" x2="592.5" y1="394.7969" y2="394.7969"/><polygon fill="#A80036" points="602.5,390.7969,592.5,394.7969,602.5,398.7969,598.5,394.7969" style="stroke: #A80036; stroke-width: 1.0;"/><line style="stroke: #A80036; stroke-width: 1.5;" x1="350" x2="275.5" y1="286.6641" y2="286.6641"/><line style="stroke: #A80036; stroke-width: 1.5;" x1="275.5" x2="275.5" y1="286.6641" y2="308.6641"/><polygon fill="#A80036" points="271.5,298.6641,275.5,308.6641,279.5,298.6641,275.5,302.6641" style="stroke: #A80036; stroke-width: 1.0;"/><line style="stroke: #A80036; stroke-width: 1.5;" x1="506" x2="580.5" y1="286.6641" y2="286.6641"/><line style="stroke: #A80036; stroke-width: 1.5;" x1="580.5" x2="580.5" y1="286.6641" y2="308.6641"/><polygon fill="#A80036" points="576.5,298.6641,580.5,308.6641,584.5,298.6641,580.5,302.6641" style="stroke: #A80036; stroke-width: 1.0;"/><line style="stroke: #A80036; stroke-width: 1.5;" x1="275.5" x2="275.5" y1="342.7969" y2="424.7969"/><line style="stroke: #A80036; stroke-width: 1.5;" x1="275.5" x2="416" y1="424.7969" y2="424.7969"/><polygon fill="#A80036" points="406,420.7969,416,424.7969,406,428.7969,410,424.7969" style="stroke: #A80036; stroke-width: 1.0;"/><line style="stroke: #A80036; stroke-width: 1.5;" x1="580.5" x2="580.5" y1="406.7969" y2="424.7969"/><line style="stroke: #A80036; stroke-width: 1.5;" x1="580.5" x2="440" y1="424.7969" y2="424.7969"/><polygon fill="#A80036" points="450,420.7969,440,424.7969,450,428.7969,446,424.7969" style="stroke: #A80036; stroke-width: 1.0;"/><line style="stroke: #A80036; stroke-width: 1.5;" x1="428" x2="428" y1="254.6641" y2="274.6641"/><polygon fill="#A80036" points="424,264.6641,428,274.6641,432,264.6641,428,268.6641" style="stroke: #A80036; stroke-width: 1.0;"/><line style="stroke: #A80036; stroke-width: 1.5;" x1="180.25" x2="88.5" y1="184.3984" y2="184.3984"/><line style="stroke: #A80036; stroke-width: 1.5;" x1="88.5" x2="88.5" y1="184.3984" y2="206.3984"/><polygon fill="#A80036" points="84.5,196.3984,88.5,206.3984,92.5,196.3984,88.5,200.3984" style="stroke: #A80036; stroke-width: 1.0;"/><line style="stroke: #A80036; stroke-width: 1.5;" x1="336.25" x2="428" y1="184.3984" y2="184.3984"/><line style="stroke: #A80036; stroke-width: 1.5;" x1="428" x2="428" y1="184.3984" y2="206.3984"/><polygon fill="#A80036" points="424,196.3984,428,206.3984,432,196.3984,428,200.3984" style="stroke: #A80036; stroke-width: 1.0;"/><line style="stroke: #A80036; stroke-width: 1.5;" x1="88.5" x2="88.5" y1="240.5313" y2="454.7969"/><line style="stroke: #A80036; stroke-width: 1.5;" x1="88.5" x2="246.25" y1="454.7969" y2="454.7969"/><polygon fill="#A80036" points="236.25,450.7969,246.25,454.7969,236.25,458.7969,240.25,454.7969" style="stroke: #A80036; stroke-width: 1.0;"/><line style="stroke: #A80036; stroke-width: 1.5;" x1="428" x2="428" y1="436.7969" y2="454.7969"/><line style="stroke: #A80036; stroke-width: 1.5;" x1="428" x2="270.25" y1="454.7969" y2="454.7969"/><polygon fill="#A80036" points="280.25,450.7969,270.25,454.7969,280.25,458.7969,276.25,454.7969" style="stroke: #A80036; stroke-width: 1.0;"/><line style="stroke: #A80036; stroke-width: 1.5;" x1="258.25" x2="258.25" y1="152.3984" y2="172.3984"/><polygon fill="#A80036" points="254.25,162.3984,258.25,172.3984,262.25,162.3984,258.25,166.3984" style="stroke: #A80036; stroke-width: 1.0;"/><line style="stroke: #A80036; stroke-width: 1.5;" x1="258.25" x2="258.25" y1="466.7969" y2="486.7969"/><polygon fill="#A80036" points="254.25,476.7969,258.25,486.7969,262.25,476.7969,258.25,480.7969" style="stroke: #A80036; stroke-width: 1.0;"/></g></svg>